<?xml version="1.0" encoding="UTF-8"?>
<svg xmlns="http://www.w3.org/2000/svg" xmlns:xlink="http://www.w3.org/1999/xlink" width="1080" height="1920" viewBox="0 0 1080 1920">
<defs>
<g>
<g id="glyph-0-0">
<path d="M 3.054688 -2.523438 L 2.886719 -2.523438 C 2.875 -2.582031 2.847656 -2.652344 2.808594 -2.734375 C 2.769531 -2.8125 2.726562 -2.890625 2.679688 -2.960938 C 2.632812 -3.035156 2.578125 -3.101562 2.519531 -3.15625 C 2.460938 -3.214844 2.40625 -3.246094 2.351562 -3.253906 C 2.300781 -3.261719 2.238281 -3.265625 2.160156 -3.269531 C 2.085938 -3.273438 2.015625 -3.273438 1.949219 -3.273438 L 1.804688 -3.273438 L 1.804688 -0.503906 C 1.804688 -0.449219 1.816406 -0.398438 1.839844 -0.355469 C 1.863281 -0.308594 1.902344 -0.277344 1.960938 -0.25 C 1.988281 -0.238281 2.050781 -0.226562 2.144531 -0.203125 C 2.238281 -0.1875 2.3125 -0.175781 2.363281 -0.171875 L 2.363281 0 L 0.726562 0 L 0.726562 -0.171875 C 0.773438 -0.175781 0.84375 -0.183594 0.9375 -0.191406 C 1.03125 -0.203125 1.09375 -0.214844 1.128906 -0.230469 C 1.183594 -0.25 1.222656 -0.28125 1.25 -0.320312 C 1.273438 -0.359375 1.285156 -0.414062 1.285156 -0.480469 L 1.285156 -3.273438 L 1.144531 -3.273438 C 1.09375 -3.273438 1.03125 -3.273438 0.957031 -3.269531 C 0.882812 -3.269531 0.8125 -3.261719 0.742188 -3.253906 C 0.6875 -3.246094 0.632812 -3.214844 0.574219 -3.15625 C 0.515625 -3.101562 0.464844 -3.035156 0.414062 -2.960938 C 0.367188 -2.886719 0.324219 -2.808594 0.285156 -2.726562 C 0.25 -2.644531 0.222656 -2.578125 0.207031 -2.523438 L 0.0351562 -2.523438 L 0.0351562 -3.464844 L 3.054688 -3.464844 Z "/>
</g>
<g id="glyph-0-1">
<path d="M 2.523438 -1.226562 C 2.523438 -1.058594 2.496094 -0.890625 2.445312 -0.730469 C 2.390625 -0.566406 2.3125 -0.425781 2.214844 -0.3125 C 2.101562 -0.183594 1.972656 -0.0859375 1.824219 -0.0234375 C 1.675781 0.0429688 1.507812 0.0742188 1.324219 0.0742188 C 1.171875 0.0742188 1.027344 0.0429688 0.886719 -0.0117188 C 0.75 -0.0703125 0.625 -0.15625 0.519531 -0.265625 C 0.410156 -0.375 0.328125 -0.507812 0.265625 -0.664062 C 0.203125 -0.824219 0.171875 -1 0.171875 -1.195312 C 0.171875 -1.570312 0.28125 -1.878906 0.5 -2.117188 C 0.71875 -2.355469 1.007812 -2.476562 1.359375 -2.476562 C 1.699219 -2.476562 1.976562 -2.363281 2.195312 -2.136719 C 2.414062 -1.90625 2.523438 -1.605469 2.523438 -1.226562 M 2.019531 -1.222656 C 2.019531 -1.34375 2.007812 -1.472656 1.980469 -1.609375 C 1.957031 -1.746094 1.921875 -1.859375 1.871094 -1.957031 C 1.820312 -2.054688 1.75 -2.136719 1.667969 -2.199219 C 1.582031 -2.257812 1.476562 -2.289062 1.355469 -2.289062 C 1.230469 -2.289062 1.125 -2.257812 1.035156 -2.195312 C 0.945312 -2.136719 0.875 -2.050781 0.816406 -1.945312 C 0.765625 -1.84375 0.730469 -1.730469 0.707031 -1.605469 C 0.6875 -1.476562 0.675781 -1.355469 0.675781 -1.234375 C 0.675781 -1.078125 0.6875 -0.933594 0.714844 -0.800781 C 0.738281 -0.667969 0.78125 -0.550781 0.835938 -0.445312 C 0.890625 -0.34375 0.960938 -0.261719 1.042969 -0.203125 C 1.128906 -0.140625 1.230469 -0.113281 1.355469 -0.113281 C 1.558594 -0.113281 1.722656 -0.210938 1.839844 -0.40625 C 1.960938 -0.605469 2.019531 -0.875 2.019531 -1.222656 Z "/>
</g>
<g id="glyph-0-2">
<path d="M 1.304688 0 L 0.128906 0 L 0.128906 -0.160156 C 0.167969 -0.164062 0.207031 -0.167969 0.25 -0.171875 C 0.292969 -0.175781 0.328125 -0.183594 0.355469 -0.191406 C 0.398438 -0.207031 0.433594 -0.230469 0.457031 -0.265625 C 0.480469 -0.304688 0.492188 -0.351562 0.492188 -0.410156 L 0.492188 -3.199219 C 0.492188 -3.257812 0.476562 -3.3125 0.453125 -3.367188 C 0.425781 -3.417969 0.394531 -3.457031 0.355469 -3.484375 C 0.324219 -3.503906 0.269531 -3.523438 0.191406 -3.539062 C 0.113281 -3.554688 0.0507812 -3.566406 0.00390625 -3.570312 L 0.00390625 -3.726562 L 0.910156 -3.78125 L 0.945312 -3.742188 L 0.945312 -0.4375 C 0.945312 -0.382812 0.957031 -0.335938 0.976562 -0.300781 C 0.996094 -0.261719 1.03125 -0.234375 1.078125 -0.214844 C 1.113281 -0.199219 1.148438 -0.1875 1.183594 -0.179688 C 1.21875 -0.171875 1.257812 -0.164062 1.304688 -0.160156 Z "/>
</g>
<g id="glyph-0-3">
<path d="M 1.765625 -1.179688 C 1.832031 -1.121094 1.882812 -1.054688 1.917969 -0.976562 C 1.953125 -0.898438 1.972656 -0.804688 1.972656 -0.695312 C 1.972656 -0.472656 1.890625 -0.289062 1.722656 -0.148438 C 1.554688 -0.0078125 1.339844 0.0625 1.074219 0.0625 C 0.933594 0.0625 0.804688 0.0390625 0.6875 -0.0117188 C 0.570312 -0.0625 0.484375 -0.109375 0.433594 -0.152344 L 0.386719 0.0078125 L 0.203125 0.0078125 L 0.179688 -0.828125 L 0.347656 -0.828125 C 0.359375 -0.765625 0.386719 -0.691406 0.429688 -0.605469 C 0.472656 -0.523438 0.523438 -0.445312 0.582031 -0.375 C 0.648438 -0.304688 0.722656 -0.246094 0.8125 -0.195312 C 0.902344 -0.148438 1 -0.121094 1.109375 -0.121094 C 1.265625 -0.121094 1.386719 -0.15625 1.472656 -0.230469 C 1.558594 -0.300781 1.597656 -0.402344 1.597656 -0.535156 C 1.597656 -0.601562 1.585938 -0.660156 1.558594 -0.710938 C 1.53125 -0.761719 1.492188 -0.804688 1.441406 -0.84375 C 1.386719 -0.878906 1.320312 -0.914062 1.242188 -0.945312 C 1.164062 -0.972656 1.078125 -1.003906 0.980469 -1.03125 C 0.90625 -1.054688 0.820312 -1.085938 0.726562 -1.125 C 0.632812 -1.167969 0.550781 -1.214844 0.484375 -1.265625 C 0.414062 -1.324219 0.355469 -1.394531 0.308594 -1.476562 C 0.265625 -1.558594 0.242188 -1.65625 0.242188 -1.769531 C 0.242188 -1.96875 0.316406 -2.132812 0.460938 -2.269531 C 0.609375 -2.40625 0.804688 -2.476562 1.050781 -2.476562 C 1.144531 -2.476562 1.242188 -2.464844 1.339844 -2.4375 C 1.4375 -2.414062 1.519531 -2.386719 1.578125 -2.351562 L 1.636719 -2.476562 L 1.8125 -2.476562 L 1.847656 -1.703125 L 1.679688 -1.703125 C 1.644531 -1.878906 1.570312 -2.019531 1.457031 -2.128906 C 1.34375 -2.234375 1.207031 -2.289062 1.046875 -2.289062 C 0.910156 -2.289062 0.804688 -2.257812 0.730469 -2.1875 C 0.652344 -2.121094 0.613281 -2.039062 0.617188 -1.945312 C 0.613281 -1.871094 0.628906 -1.8125 0.652344 -1.761719 C 0.679688 -1.714844 0.714844 -1.671875 0.765625 -1.636719 C 0.816406 -1.605469 0.875 -1.574219 0.949219 -1.546875 C 1.023438 -1.519531 1.117188 -1.484375 1.226562 -1.449219 C 1.332031 -1.414062 1.433594 -1.375 1.53125 -1.332031 C 1.625 -1.285156 1.703125 -1.234375 1.765625 -1.179688 Z "/>
</g>
</g>
</defs>
<g fill="rgb(0%, 83.137255%, 100%)" fill-opacity="1">
<use xlink:href="#glyph-0-0" x="30" y="24.584961"/>
<use xlink:href="#glyph-0-1" x="33" y="24.584961"/>
<use xlink:href="#glyph-0-1" x="36" y="24.584961"/>
<use xlink:href="#glyph-0-2" x="39" y="24.584961"/>
<use xlink:href="#glyph-0-3" x="40" y="24.584961"/>
</g>
</svg>
