<?xml version="1.0" encoding="UTF-8"?>
<svg xmlns="http://www.w3.org/2000/svg" xmlns:xlink="http://www.w3.org/1999/xlink" width="1080" height="1920" viewBox="0 0 1080 1920">
<defs>
<g>
<g id="glyph-0-0">
<path d="M 1.46875 0.0703125 C 1.296875 0.0703125 1.132812 0.0351562 0.976562 -0.03125 C 0.816406 -0.101562 0.675781 -0.199219 0.554688 -0.324219 C 0.433594 -0.453125 0.339844 -0.609375 0.265625 -0.792969 C 0.195312 -0.976562 0.160156 -1.183594 0.160156 -1.414062 C 0.160156 -1.644531 0.195312 -1.855469 0.265625 -2.042969 C 0.335938 -2.230469 0.433594 -2.394531 0.558594 -2.527344 C 0.679688 -2.664062 0.824219 -2.765625 0.992188 -2.839844 C 1.164062 -2.914062 1.339844 -2.949219 1.53125 -2.949219 C 1.675781 -2.949219 1.804688 -2.933594 1.917969 -2.898438 C 2.035156 -2.863281 2.144531 -2.8125 2.25 -2.75 L 2.332031 -2.886719 L 2.496094 -2.886719 L 2.511719 -1.859375 L 2.347656 -1.859375 C 2.324219 -1.957031 2.292969 -2.066406 2.25 -2.183594 C 2.203125 -2.300781 2.152344 -2.402344 2.097656 -2.480469 C 2.03125 -2.574219 1.953125 -2.648438 1.863281 -2.699219 C 1.773438 -2.75 1.671875 -2.777344 1.558594 -2.777344 C 1.425781 -2.777344 1.304688 -2.746094 1.191406 -2.691406 C 1.078125 -2.632812 0.980469 -2.546875 0.898438 -2.429688 C 0.816406 -2.320312 0.757812 -2.179688 0.710938 -2.011719 C 0.667969 -1.84375 0.644531 -1.652344 0.644531 -1.445312 C 0.644531 -1.257812 0.667969 -1.089844 0.714844 -0.933594 C 0.761719 -0.78125 0.828125 -0.644531 0.914062 -0.527344 C 1 -0.414062 1.105469 -0.324219 1.222656 -0.257812 C 1.339844 -0.191406 1.472656 -0.160156 1.621094 -0.160156 C 1.730469 -0.160156 1.832031 -0.179688 1.921875 -0.210938 C 2.015625 -0.246094 2.09375 -0.292969 2.164062 -0.351562 C 2.230469 -0.410156 2.289062 -0.476562 2.34375 -0.554688 C 2.394531 -0.628906 2.433594 -0.710938 2.46875 -0.800781 L 2.621094 -0.726562 C 2.503906 -0.441406 2.347656 -0.238281 2.15625 -0.113281 C 1.964844 0.0078125 1.734375 0.0703125 1.46875 0.0703125 Z "/>
</g>
<g id="glyph-0-1">
<path d="M 2.515625 -0.859375 L 2.457031 0 L 0.199219 0 L 0.199219 -0.144531 C 0.230469 -0.148438 0.277344 -0.152344 0.339844 -0.160156 C 0.402344 -0.164062 0.445312 -0.175781 0.46875 -0.183594 C 0.511719 -0.203125 0.539062 -0.230469 0.558594 -0.261719 C 0.578125 -0.296875 0.585938 -0.339844 0.585938 -0.394531 L 0.585938 -2.460938 C 0.585938 -2.503906 0.578125 -2.546875 0.5625 -2.582031 C 0.546875 -2.617188 0.515625 -2.644531 0.46875 -2.667969 C 0.4375 -2.683594 0.394531 -2.699219 0.339844 -2.714844 C 0.28125 -2.730469 0.234375 -2.738281 0.199219 -2.742188 L 0.199219 -2.886719 L 1.417969 -2.886719 L 1.417969 -2.742188 C 1.378906 -2.742188 1.332031 -2.734375 1.269531 -2.722656 C 1.210938 -2.710938 1.167969 -2.699219 1.140625 -2.691406 C 1.09375 -2.671875 1.0625 -2.644531 1.042969 -2.605469 C 1.027344 -2.566406 1.019531 -2.523438 1.019531 -2.480469 L 1.019531 -0.542969 C 1.019531 -0.453125 1.023438 -0.382812 1.03125 -0.332031 C 1.042969 -0.28125 1.0625 -0.246094 1.09375 -0.21875 C 1.125 -0.191406 1.171875 -0.175781 1.234375 -0.167969 C 1.296875 -0.164062 1.382812 -0.160156 1.492188 -0.160156 C 1.542969 -0.160156 1.597656 -0.160156 1.648438 -0.164062 C 1.703125 -0.164062 1.753906 -0.171875 1.804688 -0.179688 C 1.851562 -0.1875 1.894531 -0.199219 1.9375 -0.210938 C 1.976562 -0.226562 2.003906 -0.246094 2.023438 -0.265625 C 2.078125 -0.328125 2.144531 -0.421875 2.21875 -0.550781 C 2.292969 -0.675781 2.34375 -0.78125 2.371094 -0.859375 Z "/>
</g>
<g id="glyph-0-2">
<path d="M 1.996094 -1.324219 C 2.058594 -1.257812 2.101562 -1.183594 2.132812 -1.101562 C 2.160156 -1.019531 2.175781 -0.925781 2.175781 -0.820312 C 2.175781 -0.566406 2.082031 -0.355469 1.890625 -0.1875 C 1.703125 -0.0234375 1.46875 0.0585938 1.191406 0.0585938 C 1.0625 0.0585938 0.933594 0.0390625 0.804688 0 C 0.675781 -0.0429688 0.5625 -0.0898438 0.46875 -0.144531 L 0.382812 0.00390625 L 0.21875 0.00390625 L 0.191406 -0.988281 L 0.355469 -0.988281 C 0.390625 -0.863281 0.429688 -0.753906 0.476562 -0.65625 C 0.519531 -0.558594 0.582031 -0.464844 0.65625 -0.378906 C 0.726562 -0.300781 0.808594 -0.238281 0.902344 -0.1875 C 0.996094 -0.140625 1.105469 -0.117188 1.230469 -0.117188 C 1.324219 -0.117188 1.40625 -0.128906 1.476562 -0.15625 C 1.546875 -0.179688 1.601562 -0.214844 1.644531 -0.257812 C 1.6875 -0.304688 1.722656 -0.355469 1.742188 -0.417969 C 1.761719 -0.476562 1.773438 -0.546875 1.773438 -0.625 C 1.773438 -0.742188 1.742188 -0.847656 1.675781 -0.949219 C 1.609375 -1.046875 1.515625 -1.125 1.386719 -1.175781 C 1.296875 -1.210938 1.195312 -1.25 1.082031 -1.292969 C 0.96875 -1.335938 0.871094 -1.375 0.789062 -1.414062 C 0.625 -1.484375 0.5 -1.582031 0.40625 -1.699219 C 0.316406 -1.820312 0.273438 -1.972656 0.273438 -2.164062 C 0.273438 -2.273438 0.296875 -2.378906 0.339844 -2.472656 C 0.382812 -2.566406 0.449219 -2.652344 0.53125 -2.726562 C 0.609375 -2.796875 0.703125 -2.851562 0.808594 -2.890625 C 0.917969 -2.933594 1.027344 -2.953125 1.144531 -2.953125 C 1.277344 -2.953125 1.398438 -2.933594 1.503906 -2.890625 C 1.609375 -2.851562 1.703125 -2.804688 1.789062 -2.75 L 1.875 -2.886719 L 2.035156 -2.886719 L 2.054688 -1.929688 L 1.886719 -1.929688 C 1.859375 -2.039062 1.824219 -2.144531 1.789062 -2.242188 C 1.75 -2.34375 1.703125 -2.433594 1.640625 -2.515625 C 1.582031 -2.59375 1.511719 -2.65625 1.429688 -2.703125 C 1.34375 -2.75 1.242188 -2.773438 1.117188 -2.773438 C 0.988281 -2.773438 0.878906 -2.734375 0.789062 -2.652344 C 0.699219 -2.566406 0.652344 -2.46875 0.652344 -2.347656 C 0.652344 -2.222656 0.683594 -2.121094 0.742188 -2.039062 C 0.800781 -1.957031 0.882812 -1.886719 0.996094 -1.835938 C 1.09375 -1.789062 1.191406 -1.746094 1.285156 -1.710938 C 1.382812 -1.675781 1.476562 -1.640625 1.566406 -1.601562 C 1.644531 -1.566406 1.722656 -1.527344 1.800781 -1.480469 C 1.875 -1.4375 1.941406 -1.382812 1.996094 -1.324219 Z "/>
</g>
</g>
</defs>
<g fill="rgb(100%, 17.647059%, 47.058824%)" fill-opacity="1">
<use xlink:href="#glyph-0-0" x="30" y="23.820312"/>
<use xlink:href="#glyph-0-1" x="33" y="23.820312"/>
<use xlink:href="#glyph-0-2" x="36" y="23.820312"/>
</g>
</svg>
