<?xml version="1.0" encoding="UTF-8"?>
<svg xmlns="http://www.w3.org/2000/svg" xmlns:xlink="http://www.w3.org/1999/xlink" width="1080" height="1920" viewBox="0 0 1080 1920">
<defs>
<g>
<g id="glyph-0-0">
<path d="M 2.890625 0 L 1.691406 0 L 1.691406 -0.144531 C 1.796875 -0.152344 1.882812 -0.164062 1.953125 -0.183594 C 2.023438 -0.207031 2.058594 -0.230469 2.058594 -0.261719 C 2.058594 -0.273438 2.058594 -0.289062 2.054688 -0.304688 C 2.050781 -0.324219 2.046875 -0.339844 2.042969 -0.351562 L 1.804688 -1 L 0.789062 -1 C 0.753906 -0.902344 0.722656 -0.820312 0.699219 -0.75 C 0.675781 -0.679688 0.652344 -0.613281 0.632812 -0.554688 C 0.617188 -0.496094 0.605469 -0.449219 0.597656 -0.414062 C 0.589844 -0.375 0.585938 -0.347656 0.585938 -0.324219 C 0.585938 -0.269531 0.628906 -0.226562 0.714844 -0.199219 C 0.800781 -0.167969 0.898438 -0.148438 1.003906 -0.144531 L 1.003906 0 L -0.0820312 0 L -0.0820312 -0.144531 C -0.046875 -0.148438 -0.00390625 -0.15625 0.046875 -0.167969 C 0.101562 -0.179688 0.144531 -0.199219 0.179688 -0.21875 C 0.234375 -0.257812 0.273438 -0.292969 0.304688 -0.335938 C 0.335938 -0.375 0.363281 -0.429688 0.394531 -0.5 C 0.539062 -0.863281 0.699219 -1.269531 0.871094 -1.722656 C 1.046875 -2.171875 1.203125 -2.574219 1.339844 -2.925781 L 1.503906 -2.925781 L 2.464844 -0.4375 C 2.484375 -0.382812 2.507812 -0.339844 2.535156 -0.308594 C 2.5625 -0.277344 2.597656 -0.246094 2.644531 -0.214844 C 2.675781 -0.195312 2.714844 -0.179688 2.765625 -0.164062 C 2.816406 -0.152344 2.855469 -0.144531 2.890625 -0.144531 L 2.890625 0 M 1.730469 -1.179688 L 1.292969 -2.300781 L 0.859375 -1.179688 Z "/>
</g>
<g id="glyph-0-1">
<path d="M 1.460938 0 L 0.160156 0 L 0.160156 -0.144531 C 0.199219 -0.148438 0.25 -0.152344 0.320312 -0.15625 C 0.386719 -0.160156 0.4375 -0.171875 0.464844 -0.179688 C 0.511719 -0.199219 0.542969 -0.222656 0.5625 -0.253906 C 0.582031 -0.285156 0.59375 -0.328125 0.59375 -0.378906 L 0.59375 -2.472656 C 0.59375 -2.519531 0.585938 -2.558594 0.570312 -2.589844 C 0.558594 -2.621094 0.523438 -2.648438 0.464844 -2.671875 C 0.425781 -2.6875 0.375 -2.703125 0.3125 -2.71875 C 0.25 -2.730469 0.199219 -2.738281 0.160156 -2.742188 L 0.160156 -2.886719 L 1.460938 -2.886719 L 1.460938 -2.742188 C 1.417969 -2.742188 1.367188 -2.734375 1.308594 -2.726562 C 1.25 -2.71875 1.199219 -2.707031 1.15625 -2.695312 C 1.105469 -2.675781 1.070312 -2.652344 1.054688 -2.613281 C 1.035156 -2.578125 1.027344 -2.535156 1.027344 -2.492188 L 1.027344 -0.402344 C 1.027344 -0.359375 1.039062 -0.320312 1.058594 -0.285156 C 1.078125 -0.25 1.109375 -0.222656 1.15625 -0.203125 C 1.1875 -0.191406 1.234375 -0.179688 1.296875 -0.164062 C 1.363281 -0.152344 1.414062 -0.144531 1.460938 -0.144531 Z "/>
</g>
</g>
</defs>
<g fill="rgb(2.352941%, 100%, 64.705882%)" fill-opacity="1">
<use xlink:href="#glyph-0-0" x="30" y="23.820312"/>
<use xlink:href="#glyph-0-1" x="33" y="23.820312"/>
</g>
</svg>
