<?xml version="1.0" encoding="UTF-8"?>
<svg xmlns="http://www.w3.org/2000/svg" xmlns:xlink="http://www.w3.org/1999/xlink" width="1080" height="1920" viewBox="0 0 1080 1920">
<defs>
<g>
<g id="glyph-0-0">
<path d="M 1.644531 0 L 0.273438 0 L 0.273438 -0.144531 C 0.316406 -0.148438 0.378906 -0.152344 0.464844 -0.160156 C 0.550781 -0.171875 0.609375 -0.179688 0.644531 -0.1875 C 0.683594 -0.203125 0.71875 -0.226562 0.738281 -0.253906 C 0.761719 -0.285156 0.773438 -0.332031 0.773438 -0.394531 L 0.773438 -1.820312 L 0.265625 -1.820312 L 0.265625 -1.992188 L 0.378906 -1.992188 C 0.523438 -1.992188 0.65625 -2.019531 0.773438 -2.074219 C 0.886719 -2.128906 0.972656 -2.1875 1.019531 -2.25 L 1.191406 -2.25 C 1.1875 -2.160156 1.183594 -2.058594 1.179688 -1.9375 C 1.175781 -1.820312 1.171875 -1.714844 1.171875 -1.621094 L 1.171875 -0.414062 C 1.171875 -0.367188 1.183594 -0.324219 1.203125 -0.289062 C 1.222656 -0.25 1.253906 -0.222656 1.292969 -0.207031 C 1.328125 -0.191406 1.386719 -0.175781 1.46875 -0.164062 C 1.546875 -0.152344 1.605469 -0.144531 1.644531 -0.144531 Z "/>
</g>
<g id="glyph-0-1">
<path d="M 2.1875 -0.9375 C 2.1875 -0.796875 2.160156 -0.664062 2.109375 -0.539062 C 2.058594 -0.417969 1.992188 -0.3125 1.90625 -0.226562 C 1.808594 -0.125 1.699219 -0.0546875 1.578125 -0.0078125 C 1.457031 0.0429688 1.332031 0.0664062 1.203125 0.0664062 C 1.050781 0.0664062 0.914062 0.0390625 0.792969 -0.0195312 C 0.671875 -0.0742188 0.566406 -0.152344 0.480469 -0.253906 C 0.394531 -0.355469 0.328125 -0.484375 0.28125 -0.632812 C 0.234375 -0.78125 0.210938 -0.949219 0.210938 -1.132812 C 0.210938 -1.617188 0.355469 -2.027344 0.640625 -2.359375 C 0.929688 -2.691406 1.316406 -2.890625 1.800781 -2.957031 L 1.835938 -2.773438 L 1.652344 -2.742188 C 1.359375 -2.644531 1.132812 -2.496094 0.972656 -2.296875 C 0.8125 -2.097656 0.707031 -1.851562 0.660156 -1.566406 C 0.777344 -1.667969 0.890625 -1.742188 1.003906 -1.78125 C 1.117188 -1.824219 1.238281 -1.84375 1.363281 -1.84375 C 1.589844 -1.84375 1.785156 -1.757812 1.945312 -1.585938 C 2.105469 -1.410156 2.1875 -1.195312 2.1875 -0.9375 M 1.746094 -0.882812 C 1.746094 -1.101562 1.695312 -1.277344 1.59375 -1.410156 C 1.492188 -1.542969 1.359375 -1.609375 1.1875 -1.609375 C 1.085938 -1.609375 0.992188 -1.59375 0.90625 -1.554688 C 0.816406 -1.515625 0.730469 -1.453125 0.652344 -1.363281 C 0.648438 -1.347656 0.648438 -1.308594 0.644531 -1.25 C 0.640625 -1.191406 0.640625 -1.144531 0.640625 -1.109375 C 0.640625 -0.792969 0.691406 -0.542969 0.796875 -0.363281 C 0.898438 -0.183594 1.035156 -0.09375 1.207031 -0.09375 C 1.367188 -0.09375 1.5 -0.164062 1.597656 -0.304688 C 1.695312 -0.445312 1.746094 -0.640625 1.746094 -0.882812 Z "/>
</g>
</g>
</defs>
<g fill="rgb(45.098039%, 23.137255%, 98.823529%)" fill-opacity="1">
<use xlink:href="#glyph-0-0" x="30" y="23.820312"/>
<use xlink:href="#glyph-0-1" x="32" y="23.820312"/>
</g>
</svg>
