<?xml version="1.0" encoding="UTF-8"?>
<svg xmlns="http://www.w3.org/2000/svg" xmlns:xlink="http://www.w3.org/1999/xlink" width="1080" height="1920" viewBox="0 0 1080 1920">
<defs>
<g>
<g id="glyph-0-0">
<path d="M 1.699219 -1.402344 L 1.605469 -1.402344 C 1.597656 -1.433594 1.582031 -1.472656 1.558594 -1.519531 C 1.539062 -1.5625 1.515625 -1.605469 1.488281 -1.644531 C 1.460938 -1.6875 1.433594 -1.722656 1.398438 -1.753906 C 1.367188 -1.785156 1.335938 -1.804688 1.304688 -1.808594 C 1.277344 -1.8125 1.242188 -1.8125 1.199219 -1.816406 C 1.15625 -1.816406 1.117188 -1.820312 1.082031 -1.820312 L 1.003906 -1.820312 L 1.003906 -0.28125 C 1.003906 -0.25 1.011719 -0.222656 1.023438 -0.199219 C 1.035156 -0.171875 1.058594 -0.152344 1.089844 -0.140625 C 1.105469 -0.132812 1.140625 -0.125 1.191406 -0.113281 C 1.242188 -0.101562 1.285156 -0.0976562 1.3125 -0.0976562 L 1.3125 0 L 0.402344 0 L 0.402344 -0.0976562 C 0.429688 -0.0976562 0.46875 -0.101562 0.519531 -0.105469 C 0.570312 -0.113281 0.609375 -0.121094 0.628906 -0.128906 C 0.65625 -0.140625 0.679688 -0.15625 0.695312 -0.179688 C 0.707031 -0.199219 0.714844 -0.230469 0.714844 -0.265625 L 0.714844 -1.820312 L 0.636719 -1.820312 C 0.609375 -1.820312 0.574219 -1.816406 0.53125 -1.816406 C 0.488281 -1.816406 0.449219 -1.8125 0.414062 -1.808594 C 0.382812 -1.804688 0.351562 -1.785156 0.320312 -1.753906 C 0.289062 -1.722656 0.257812 -1.6875 0.230469 -1.644531 C 0.203125 -1.605469 0.179688 -1.5625 0.160156 -1.515625 C 0.136719 -1.46875 0.125 -1.433594 0.117188 -1.402344 L 0.0195312 -1.402344 L 0.0195312 -1.925781 L 1.699219 -1.925781 Z "/>
</g>
<g id="glyph-0-1">
<path d="M 1.285156 -0.316406 C 1.230469 -0.207031 1.15625 -0.121094 1.058594 -0.0585938 C 0.964844 0.00390625 0.859375 0.0351562 0.738281 0.0351562 C 0.628906 0.0351562 0.535156 0.015625 0.453125 -0.0234375 C 0.371094 -0.0585938 0.304688 -0.109375 0.253906 -0.175781 C 0.199219 -0.242188 0.160156 -0.316406 0.136719 -0.402344 C 0.109375 -0.492188 0.0976562 -0.582031 0.0976562 -0.679688 C 0.0976562 -0.765625 0.113281 -0.851562 0.140625 -0.933594 C 0.167969 -1.019531 0.207031 -1.09375 0.261719 -1.160156 C 0.3125 -1.226562 0.375 -1.277344 0.453125 -1.316406 C 0.527344 -1.355469 0.613281 -1.375 0.710938 -1.375 C 0.808594 -1.375 0.890625 -1.359375 0.960938 -1.328125 C 1.03125 -1.296875 1.085938 -1.257812 1.128906 -1.203125 C 1.171875 -1.152344 1.203125 -1.09375 1.222656 -1.023438 C 1.242188 -0.957031 1.253906 -0.878906 1.253906 -0.800781 L 1.253906 -0.710938 L 0.367188 -0.710938 C 0.367188 -0.621094 0.375 -0.542969 0.394531 -0.472656 C 0.410156 -0.398438 0.4375 -0.335938 0.472656 -0.28125 C 0.507812 -0.230469 0.554688 -0.1875 0.609375 -0.15625 C 0.667969 -0.128906 0.734375 -0.113281 0.8125 -0.113281 C 0.894531 -0.113281 0.964844 -0.132812 1.023438 -0.167969 C 1.082031 -0.207031 1.136719 -0.273438 1.191406 -0.371094 L 1.285156 -0.316406 M 0.984375 -0.824219 C 0.984375 -0.875 0.980469 -0.929688 0.972656 -0.988281 C 0.964844 -1.042969 0.949219 -1.09375 0.933594 -1.132812 C 0.910156 -1.171875 0.882812 -1.207031 0.847656 -1.234375 C 0.808594 -1.257812 0.761719 -1.273438 0.707031 -1.273438 C 0.613281 -1.273438 0.53125 -1.234375 0.46875 -1.152344 C 0.40625 -1.074219 0.371094 -0.964844 0.367188 -0.824219 Z "/>
</g>
<g id="glyph-0-2">
<path d="M 0.980469 -0.65625 C 1.015625 -0.621094 1.046875 -0.585938 1.066406 -0.542969 C 1.085938 -0.5 1.097656 -0.449219 1.097656 -0.386719 C 1.097656 -0.261719 1.050781 -0.160156 0.957031 -0.0820312 C 0.863281 -0.00390625 0.742188 0.0351562 0.597656 0.0351562 C 0.519531 0.0351562 0.449219 0.0195312 0.382812 -0.0078125 C 0.316406 -0.0351562 0.269531 -0.0625 0.242188 -0.0859375 L 0.214844 0.00390625 L 0.113281 0.00390625 L 0.0976562 -0.460938 L 0.191406 -0.460938 C 0.199219 -0.425781 0.214844 -0.382812 0.238281 -0.335938 C 0.261719 -0.289062 0.289062 -0.246094 0.324219 -0.210938 C 0.359375 -0.167969 0.402344 -0.136719 0.449219 -0.109375 C 0.5 -0.0820312 0.554688 -0.0664062 0.617188 -0.0664062 C 0.703125 -0.0664062 0.769531 -0.0859375 0.816406 -0.128906 C 0.863281 -0.167969 0.886719 -0.222656 0.886719 -0.296875 C 0.886719 -0.335938 0.878906 -0.367188 0.867188 -0.394531 C 0.851562 -0.421875 0.828125 -0.445312 0.800781 -0.46875 C 0.769531 -0.488281 0.734375 -0.507812 0.691406 -0.523438 C 0.648438 -0.539062 0.597656 -0.558594 0.546875 -0.574219 C 0.503906 -0.585938 0.457031 -0.605469 0.402344 -0.625 C 0.351562 -0.648438 0.308594 -0.675781 0.269531 -0.703125 C 0.230469 -0.734375 0.199219 -0.773438 0.171875 -0.820312 C 0.148438 -0.867188 0.132812 -0.921875 0.132812 -0.984375 C 0.132812 -1.09375 0.175781 -1.183594 0.257812 -1.261719 C 0.335938 -1.335938 0.445312 -1.375 0.582031 -1.375 C 0.636719 -1.375 0.6875 -1.367188 0.742188 -1.355469 C 0.796875 -1.339844 0.84375 -1.324219 0.878906 -1.304688 L 0.910156 -1.375 L 1.007812 -1.375 L 1.027344 -0.945312 L 0.933594 -0.945312 C 0.914062 -1.042969 0.875 -1.121094 0.808594 -1.179688 C 0.746094 -1.242188 0.671875 -1.273438 0.582031 -1.273438 C 0.507812 -1.273438 0.449219 -1.253906 0.40625 -1.214844 C 0.363281 -1.179688 0.339844 -1.132812 0.339844 -1.082031 C 0.339844 -1.039062 0.347656 -1.007812 0.363281 -0.980469 C 0.375 -0.953125 0.398438 -0.929688 0.425781 -0.910156 C 0.453125 -0.890625 0.488281 -0.875 0.527344 -0.859375 C 0.570312 -0.84375 0.621094 -0.824219 0.679688 -0.804688 C 0.742188 -0.785156 0.796875 -0.765625 0.851562 -0.738281 C 0.902344 -0.714844 0.945312 -0.6875 0.980469 -0.65625 Z "/>
</g>
<g id="glyph-0-3">
<path d="M 0.921875 -0.0585938 C 0.863281 -0.0351562 0.808594 -0.0117188 0.757812 0.00390625 C 0.703125 0.0195312 0.640625 0.0273438 0.5625 0.0273438 C 0.453125 0.0273438 0.375 0 0.328125 -0.0546875 C 0.28125 -0.113281 0.257812 -0.191406 0.257812 -0.296875 L 0.257812 -1.203125 L 0.0195312 -1.203125 L 0.0195312 -1.332031 L 0.265625 -1.332031 L 0.265625 -1.746094 L 0.511719 -1.746094 L 0.511719 -1.332031 L 0.894531 -1.332031 L 0.894531 -1.203125 L 0.515625 -1.203125 L 0.515625 -0.453125 C 0.515625 -0.398438 0.515625 -0.351562 0.519531 -0.3125 C 0.523438 -0.277344 0.535156 -0.242188 0.550781 -0.214844 C 0.5625 -0.1875 0.585938 -0.167969 0.613281 -0.15625 C 0.644531 -0.140625 0.683594 -0.136719 0.730469 -0.136719 C 0.753906 -0.136719 0.785156 -0.136719 0.832031 -0.140625 C 0.875 -0.144531 0.90625 -0.152344 0.921875 -0.15625 Z "/>
</g>
<g id="glyph-0-4">
<path d="M 0.746094 0 L 0.101562 0 L 0.101562 -0.0898438 C 0.121094 -0.0898438 0.144531 -0.09375 0.164062 -0.09375 C 0.1875 -0.0976562 0.207031 -0.101562 0.222656 -0.105469 C 0.246094 -0.113281 0.265625 -0.128906 0.277344 -0.148438 C 0.289062 -0.167969 0.296875 -0.195312 0.296875 -0.226562 L 0.296875 -1.050781 C 0.296875 -1.082031 0.289062 -1.109375 0.277344 -1.132812 C 0.265625 -1.15625 0.246094 -1.175781 0.222656 -1.191406 C 0.207031 -1.203125 0.179688 -1.210938 0.148438 -1.21875 C 0.117188 -1.226562 0.0859375 -1.230469 0.0585938 -1.234375 L 0.0585938 -1.324219 L 0.53125 -1.351562 L 0.550781 -1.335938 L 0.550781 -0.242188 C 0.550781 -0.210938 0.554688 -0.1875 0.566406 -0.164062 C 0.578125 -0.144531 0.597656 -0.128906 0.625 -0.121094 C 0.644531 -0.109375 0.664062 -0.105469 0.683594 -0.101562 C 0.703125 -0.09375 0.722656 -0.0898438 0.746094 -0.0898438 L 0.746094 0 M 0.578125 -1.882812 C 0.578125 -1.828125 0.558594 -1.785156 0.527344 -1.746094 C 0.492188 -1.707031 0.449219 -1.6875 0.398438 -1.6875 C 0.355469 -1.6875 0.3125 -1.707031 0.28125 -1.742188 C 0.246094 -1.78125 0.230469 -1.820312 0.230469 -1.867188 C 0.230469 -1.917969 0.246094 -1.960938 0.28125 -2 C 0.3125 -2.035156 0.355469 -2.054688 0.398438 -2.054688 C 0.453125 -2.054688 0.492188 -2.039062 0.527344 -2.003906 C 0.558594 -1.96875 0.578125 -1.925781 0.578125 -1.882812 Z "/>
</g>
<g id="glyph-0-5">
<path d="M 1.574219 0 L 0.921875 0 L 0.921875 -0.0898438 C 0.941406 -0.0898438 0.964844 -0.09375 0.988281 -0.09375 C 1.015625 -0.0976562 1.035156 -0.101562 1.050781 -0.105469 C 1.078125 -0.113281 1.09375 -0.128906 1.105469 -0.148438 C 1.121094 -0.167969 1.125 -0.195312 1.125 -0.226562 L 1.125 -0.914062 C 1.125 -1.011719 1.101562 -1.082031 1.058594 -1.136719 C 1.011719 -1.1875 0.957031 -1.210938 0.894531 -1.210938 C 0.847656 -1.210938 0.800781 -1.203125 0.761719 -1.191406 C 0.722656 -1.175781 0.6875 -1.15625 0.65625 -1.136719 C 0.625 -1.113281 0.601562 -1.09375 0.585938 -1.066406 C 0.566406 -1.042969 0.554688 -1.023438 0.546875 -1.011719 L 0.546875 -0.242188 C 0.546875 -0.210938 0.554688 -0.183594 0.566406 -0.164062 C 0.578125 -0.144531 0.597656 -0.128906 0.621094 -0.121094 C 0.640625 -0.109375 0.660156 -0.105469 0.683594 -0.0976562 C 0.707031 -0.09375 0.730469 -0.0898438 0.753906 -0.0898438 L 0.753906 0 L 0.0976562 0 L 0.0976562 -0.0898438 C 0.117188 -0.0898438 0.140625 -0.09375 0.160156 -0.09375 C 0.183594 -0.0976562 0.203125 -0.101562 0.21875 -0.105469 C 0.246094 -0.113281 0.265625 -0.128906 0.277344 -0.148438 C 0.289062 -0.167969 0.292969 -0.195312 0.292969 -0.226562 L 0.292969 -1.050781 C 0.292969 -1.082031 0.289062 -1.113281 0.273438 -1.136719 C 0.261719 -1.164062 0.242188 -1.183594 0.21875 -1.199219 C 0.203125 -1.210938 0.183594 -1.21875 0.160156 -1.222656 C 0.136719 -1.230469 0.109375 -1.230469 0.0820312 -1.234375 L 0.0820312 -1.324219 L 0.527344 -1.351562 L 0.546875 -1.335938 L 0.546875 -1.144531 L 0.554688 -1.144531 C 0.574219 -1.167969 0.601562 -1.195312 0.632812 -1.222656 C 0.667969 -1.253906 0.699219 -1.277344 0.726562 -1.296875 C 0.761719 -1.320312 0.800781 -1.335938 0.847656 -1.351562 C 0.890625 -1.367188 0.945312 -1.375 1.003906 -1.375 C 1.128906 -1.375 1.226562 -1.332031 1.289062 -1.253906 C 1.347656 -1.171875 1.378906 -1.066406 1.378906 -0.933594 L 1.378906 -0.238281 C 1.378906 -0.207031 1.386719 -0.179688 1.398438 -0.160156 C 1.40625 -0.144531 1.425781 -0.128906 1.453125 -0.117188 C 1.472656 -0.109375 1.492188 -0.101562 1.507812 -0.0976562 C 1.523438 -0.09375 1.546875 -0.0898438 1.574219 -0.0898438 Z "/>
</g>
<g id="glyph-0-6">
<path d="M 1.242188 -0.136719 C 1.28125 -0.105469 1.308594 -0.0664062 1.328125 -0.0234375 C 1.351562 0.0234375 1.359375 0.0742188 1.359375 0.140625 C 1.359375 0.203125 1.347656 0.265625 1.316406 0.320312 C 1.289062 0.378906 1.246094 0.425781 1.191406 0.46875 C 1.128906 0.511719 1.058594 0.542969 0.972656 0.566406 C 0.890625 0.589844 0.785156 0.601562 0.660156 0.601562 C 0.460938 0.601562 0.308594 0.574219 0.207031 0.511719 C 0.105469 0.453125 0.0585938 0.367188 0.0585938 0.253906 C 0.0585938 0.160156 0.09375 0.0898438 0.164062 0.0351562 C 0.238281 -0.0195312 0.328125 -0.046875 0.441406 -0.0507812 L 0.441406 -0.0703125 C 0.414062 -0.078125 0.386719 -0.0898438 0.359375 -0.101562 C 0.328125 -0.113281 0.304688 -0.128906 0.285156 -0.144531 C 0.261719 -0.164062 0.242188 -0.183594 0.226562 -0.210938 C 0.210938 -0.238281 0.203125 -0.269531 0.203125 -0.304688 C 0.203125 -0.355469 0.222656 -0.398438 0.253906 -0.4375 C 0.289062 -0.480469 0.339844 -0.511719 0.410156 -0.542969 L 0.410156 -0.5625 C 0.324219 -0.601562 0.253906 -0.65625 0.207031 -0.71875 C 0.160156 -0.78125 0.136719 -0.855469 0.136719 -0.941406 C 0.136719 -1.066406 0.183594 -1.171875 0.277344 -1.253906 C 0.371094 -1.335938 0.492188 -1.375 0.640625 -1.375 C 0.679688 -1.375 0.722656 -1.371094 0.761719 -1.363281 C 0.800781 -1.355469 0.84375 -1.34375 0.882812 -1.332031 L 1.351562 -1.332031 L 1.351562 -1.203125 L 1.035156 -1.203125 L 1.035156 -1.195312 C 1.070312 -1.15625 1.09375 -1.113281 1.109375 -1.066406 C 1.125 -1.015625 1.136719 -0.972656 1.136719 -0.925781 C 1.136719 -0.808594 1.085938 -0.710938 0.992188 -0.628906 C 0.898438 -0.546875 0.785156 -0.503906 0.660156 -0.503906 L 0.496094 -0.503906 C 0.472656 -0.5 0.453125 -0.484375 0.429688 -0.464844 C 0.40625 -0.449219 0.394531 -0.421875 0.394531 -0.390625 C 0.394531 -0.355469 0.40625 -0.332031 0.425781 -0.3125 C 0.445312 -0.296875 0.464844 -0.28125 0.492188 -0.277344 C 0.519531 -0.269531 0.550781 -0.265625 0.585938 -0.261719 C 0.621094 -0.261719 0.65625 -0.261719 0.691406 -0.257812 C 0.734375 -0.257812 0.789062 -0.253906 0.855469 -0.25 C 0.925781 -0.246094 0.972656 -0.242188 1.003906 -0.242188 C 1.046875 -0.242188 1.085938 -0.230469 1.128906 -0.214844 C 1.171875 -0.195312 1.210938 -0.171875 1.242188 -0.136719 M 0.878906 -0.933594 C 0.878906 -1.039062 0.855469 -1.121094 0.8125 -1.183594 C 0.769531 -1.246094 0.710938 -1.277344 0.632812 -1.277344 C 0.589844 -1.277344 0.554688 -1.269531 0.523438 -1.253906 C 0.492188 -1.234375 0.46875 -1.210938 0.449219 -1.175781 C 0.429688 -1.148438 0.417969 -1.113281 0.410156 -1.070312 C 0.402344 -1.027344 0.398438 -0.984375 0.398438 -0.941406 C 0.398438 -0.839844 0.421875 -0.757812 0.464844 -0.695312 C 0.507812 -0.632812 0.566406 -0.597656 0.632812 -0.597656 C 0.710938 -0.597656 0.773438 -0.628906 0.8125 -0.695312 C 0.855469 -0.757812 0.878906 -0.835938 0.878906 -0.933594 M 1.136719 0.191406 C 1.136719 0.140625 1.125 0.0976562 1.101562 0.0664062 C 1.078125 0.03125 1.042969 0.0117188 0.996094 0 C 0.96875 -0.00390625 0.917969 -0.0078125 0.839844 -0.0117188 C 0.761719 -0.0195312 0.667969 -0.0195312 0.566406 -0.0195312 C 0.46875 0 0.398438 0.03125 0.355469 0.0742188 C 0.316406 0.121094 0.296875 0.175781 0.296875 0.25 C 0.296875 0.28125 0.300781 0.308594 0.316406 0.339844 C 0.328125 0.367188 0.351562 0.394531 0.386719 0.417969 C 0.417969 0.441406 0.460938 0.460938 0.515625 0.476562 C 0.566406 0.492188 0.632812 0.5 0.710938 0.5 C 0.84375 0.5 0.945312 0.472656 1.023438 0.421875 C 1.097656 0.371094 1.136719 0.292969 1.136719 0.191406 Z "/>
</g>
</g>
</defs>
<g fill="rgb(94.117647%, 94.117647%, 100%)" fill-opacity="1">
<use xlink:href="#glyph-0-0" x="30" y="22.546875"/>
<use xlink:href="#glyph-0-1" x="32" y="22.546875"/>
<use xlink:href="#glyph-0-2" x="33" y="22.546875"/>
<use xlink:href="#glyph-0-3" x="34" y="22.546875"/>
<use xlink:href="#glyph-0-4" x="35" y="22.546875"/>
<use xlink:href="#glyph-0-5" x="36" y="22.546875"/>
<use xlink:href="#glyph-0-6" x="38" y="22.546875"/>
</g>
</svg>
