<?xml version="1.0" encoding="UTF-8"?>
<svg xmlns="http://www.w3.org/2000/svg" xmlns:xlink="http://www.w3.org/1999/xlink" width="1080" height="1920" viewBox="0 0 1080 1920">
<defs>
<g>
<g id="glyph-0-0">
<path d="M 0.328125 -0.109375 L 1.164062 -0.109375 L 1.164062 -0.152344 C 1.164062 -0.175781 1.167969 -0.195312 1.179688 -0.207031 C 1.1875 -0.21875 1.203125 -0.222656 1.21875 -0.222656 C 1.234375 -0.222656 1.246094 -0.21875 1.257812 -0.207031 C 1.265625 -0.195312 1.273438 -0.175781 1.273438 -0.152344 L 1.273438 0 L 0.222656 0 L 0.222656 -0.160156 C 0.441406 -0.359375 0.65625 -0.5625 0.867188 -0.765625 C 0.964844 -0.863281 1.03125 -0.933594 1.066406 -0.976562 C 1.101562 -1.023438 1.128906 -1.0625 1.140625 -1.097656 C 1.15625 -1.128906 1.160156 -1.164062 1.160156 -1.199219 C 1.160156 -1.292969 1.125 -1.375 1.046875 -1.445312 C 0.972656 -1.519531 0.882812 -1.554688 0.777344 -1.554688 C 0.683594 -1.554688 0.597656 -1.527344 0.523438 -1.472656 C 0.449219 -1.417969 0.402344 -1.351562 0.382812 -1.269531 C 0.375 -1.25 0.371094 -1.234375 0.363281 -1.230469 C 0.351562 -1.222656 0.339844 -1.21875 0.328125 -1.21875 C 0.3125 -1.21875 0.300781 -1.222656 0.289062 -1.230469 C 0.28125 -1.242188 0.273438 -1.253906 0.273438 -1.265625 C 0.273438 -1.308594 0.296875 -1.363281 0.34375 -1.4375 C 0.386719 -1.507812 0.449219 -1.5625 0.53125 -1.601562 C 0.609375 -1.644531 0.691406 -1.664062 0.777344 -1.664062 C 0.910156 -1.664062 1.027344 -1.617188 1.125 -1.523438 C 1.222656 -1.429688 1.269531 -1.320312 1.269531 -1.203125 C 1.269531 -1.152344 1.261719 -1.105469 1.246094 -1.066406 C 1.230469 -1.023438 1.203125 -0.976562 1.164062 -0.925781 C 1.125 -0.878906 1.054688 -0.804688 0.953125 -0.703125 C 0.695312 -0.449219 0.488281 -0.253906 0.328125 -0.117188 Z "/>
</g>
<g id="glyph-0-1">
<path d="M 1.019531 -0.882812 C 1.117188 -0.839844 1.195312 -0.777344 1.246094 -0.699219 C 1.300781 -0.621094 1.328125 -0.539062 1.328125 -0.457031 C 1.328125 -0.324219 1.273438 -0.210938 1.167969 -0.109375 C 1.0625 -0.0117188 0.929688 0.0390625 0.773438 0.0390625 C 0.679688 0.0390625 0.582031 0.0195312 0.480469 -0.0195312 C 0.382812 -0.0585938 0.3125 -0.101562 0.273438 -0.140625 C 0.257812 -0.15625 0.253906 -0.171875 0.253906 -0.1875 C 0.253906 -0.199219 0.257812 -0.210938 0.265625 -0.222656 C 0.277344 -0.234375 0.289062 -0.238281 0.304688 -0.238281 C 0.316406 -0.238281 0.332031 -0.230469 0.347656 -0.21875 C 0.484375 -0.121094 0.625 -0.0703125 0.773438 -0.0703125 C 0.898438 -0.0703125 1.003906 -0.109375 1.089844 -0.1875 C 1.175781 -0.265625 1.21875 -0.355469 1.21875 -0.453125 C 1.21875 -0.515625 1.199219 -0.578125 1.15625 -0.640625 C 1.113281 -0.703125 1.054688 -0.753906 0.976562 -0.789062 C 0.894531 -0.824219 0.816406 -0.84375 0.738281 -0.84375 C 0.710938 -0.84375 0.691406 -0.847656 0.679688 -0.859375 C 0.667969 -0.867188 0.664062 -0.878906 0.664062 -0.898438 C 0.664062 -0.914062 0.667969 -0.925781 0.679688 -0.9375 C 0.691406 -0.945312 0.707031 -0.953125 0.730469 -0.953125 L 0.820312 -0.949219 C 0.917969 -0.949219 1 -0.980469 1.0625 -1.039062 C 1.128906 -1.097656 1.160156 -1.167969 1.160156 -1.246094 C 1.160156 -1.328125 1.125 -1.398438 1.058594 -1.460938 C 0.992188 -1.523438 0.90625 -1.554688 0.796875 -1.554688 C 0.722656 -1.554688 0.65625 -1.542969 0.589844 -1.515625 C 0.527344 -1.488281 0.476562 -1.453125 0.441406 -1.410156 C 0.425781 -1.390625 0.414062 -1.382812 0.410156 -1.378906 C 0.402344 -1.375 0.394531 -1.371094 0.382812 -1.371094 C 0.367188 -1.371094 0.355469 -1.378906 0.34375 -1.386719 C 0.335938 -1.398438 0.332031 -1.410156 0.332031 -1.421875 C 0.332031 -1.457031 0.367188 -1.5 0.441406 -1.554688 C 0.546875 -1.625 0.664062 -1.664062 0.796875 -1.664062 C 0.9375 -1.664062 1.046875 -1.621094 1.136719 -1.539062 C 1.226562 -1.457031 1.269531 -1.359375 1.269531 -1.246094 C 1.269531 -1.171875 1.246094 -1.105469 1.207031 -1.039062 C 1.164062 -0.976562 1.101562 -0.921875 1.019531 -0.882812 Z "/>
</g>
<g id="glyph-0-2">
<path d="M 1.019531 -0.84375 C 1.109375 -0.796875 1.179688 -0.742188 1.222656 -0.667969 C 1.269531 -0.597656 1.292969 -0.519531 1.292969 -0.4375 C 1.292969 -0.308594 1.246094 -0.195312 1.148438 -0.101562 C 1.050781 -0.0078125 0.933594 0.0390625 0.796875 0.0390625 C 0.65625 0.0390625 0.539062 -0.0078125 0.445312 -0.101562 C 0.347656 -0.195312 0.300781 -0.308594 0.300781 -0.4375 C 0.300781 -0.519531 0.320312 -0.59375 0.367188 -0.667969 C 0.414062 -0.738281 0.484375 -0.796875 0.574219 -0.84375 C 0.496094 -0.886719 0.4375 -0.9375 0.402344 -0.984375 C 0.351562 -1.054688 0.328125 -1.132812 0.328125 -1.21875 C 0.328125 -1.335938 0.371094 -1.441406 0.464844 -1.53125 C 0.554688 -1.617188 0.667969 -1.664062 0.796875 -1.664062 C 0.925781 -1.664062 1.039062 -1.617188 1.128906 -1.53125 C 1.21875 -1.441406 1.265625 -1.335938 1.265625 -1.21875 C 1.265625 -1.132812 1.242188 -1.054688 1.191406 -0.988281 C 1.15625 -0.9375 1.097656 -0.886719 1.019531 -0.84375 M 1.15625 -1.214844 C 1.15625 -1.304688 1.121094 -1.386719 1.050781 -1.453125 C 0.980469 -1.519531 0.894531 -1.554688 0.792969 -1.554688 C 0.695312 -1.554688 0.609375 -1.519531 0.539062 -1.453125 C 0.472656 -1.386719 0.4375 -1.304688 0.4375 -1.214844 C 0.4375 -1.128906 0.46875 -1.054688 0.539062 -0.992188 C 0.609375 -0.929688 0.691406 -0.898438 0.792969 -0.898438 C 0.898438 -0.898438 0.984375 -0.929688 1.050781 -0.992188 C 1.121094 -1.054688 1.15625 -1.128906 1.15625 -1.214844 M 1.183594 -0.433594 C 1.183594 -0.53125 1.148438 -0.613281 1.074219 -0.683594 C 1 -0.753906 0.90625 -0.789062 0.796875 -0.789062 C 0.6875 -0.789062 0.59375 -0.753906 0.519531 -0.683594 C 0.445312 -0.613281 0.40625 -0.53125 0.40625 -0.433594 C 0.40625 -0.335938 0.445312 -0.25 0.519531 -0.179688 C 0.59375 -0.105469 0.6875 -0.0703125 0.796875 -0.0703125 C 0.90625 -0.0703125 0.996094 -0.105469 1.074219 -0.179688 C 1.148438 -0.25 1.183594 -0.335938 1.183594 -0.433594 Z "/>
</g>
</g>
</defs>
<path fill="none" stroke-width="0.15414" stroke-linecap="butt" stroke-linejoin="miter" stroke="rgb(0%, 83.137255%, 100%)" stroke-opacity="1" stroke-miterlimit="2" d="M 30.230469 20.230469 L 37.949219 20.230469 L 37.949219 28.25 L 30.230469 28.25 Z "/>
<g fill="rgb(0%, 83.137255%, 100%)" fill-opacity="1">
<use xlink:href="#glyph-0-0" x="30.460938" y="24.164062"/>
</g>
<g fill="rgb(0%, 83.137255%, 100%)" fill-opacity="1">
<use xlink:href="#glyph-0-1" x="34.167969" y="24.164062"/>
</g>
<g fill="rgb(0%, 83.137255%, 100%)" fill-opacity="1">
<use xlink:href="#glyph-0-0" x="30.460938" y="28.019531"/>
</g>
<g fill="rgb(0%, 83.137255%, 100%)" fill-opacity="1">
<use xlink:href="#glyph-0-2" x="34.167969" y="28.019531"/>
</g>
</svg>
