<?xml version="1.0" encoding="UTF-8"?>
<svg xmlns="http://www.w3.org/2000/svg" xmlns:xlink="http://www.w3.org/1999/xlink" width="1080" height="1920" viewBox="0 0 1080 1920">
<defs>
<g>
<g id="glyph-0-0">
<path d="M 0.882812 0.0429688 C 0.777344 0.0429688 0.679688 0.0195312 0.585938 -0.0195312 C 0.488281 -0.0585938 0.40625 -0.117188 0.332031 -0.195312 C 0.261719 -0.273438 0.203125 -0.367188 0.160156 -0.476562 C 0.117188 -0.585938 0.09375 -0.710938 0.09375 -0.847656 C 0.09375 -0.988281 0.117188 -1.113281 0.160156 -1.226562 C 0.199219 -1.339844 0.257812 -1.4375 0.335938 -1.515625 C 0.410156 -1.597656 0.496094 -1.660156 0.597656 -1.703125 C 0.699219 -1.746094 0.804688 -1.769531 0.917969 -1.769531 C 1.003906 -1.769531 1.082031 -1.757812 1.152344 -1.738281 C 1.21875 -1.71875 1.285156 -1.6875 1.347656 -1.648438 L 1.398438 -1.730469 L 1.496094 -1.730469 L 1.507812 -1.113281 L 1.40625 -1.113281 C 1.394531 -1.175781 1.375 -1.238281 1.347656 -1.308594 C 1.324219 -1.378906 1.292969 -1.441406 1.257812 -1.488281 C 1.21875 -1.542969 1.171875 -1.589844 1.117188 -1.621094 C 1.066406 -1.652344 1.003906 -1.667969 0.933594 -1.667969 C 0.855469 -1.667969 0.78125 -1.648438 0.714844 -1.613281 C 0.644531 -1.578125 0.585938 -1.527344 0.539062 -1.457031 C 0.492188 -1.394531 0.453125 -1.308594 0.425781 -1.207031 C 0.398438 -1.105469 0.386719 -0.992188 0.386719 -0.867188 C 0.386719 -0.753906 0.402344 -0.652344 0.429688 -0.5625 C 0.457031 -0.46875 0.496094 -0.386719 0.550781 -0.316406 C 0.601562 -0.25 0.664062 -0.195312 0.734375 -0.15625 C 0.804688 -0.117188 0.882812 -0.0976562 0.972656 -0.0976562 C 1.039062 -0.0976562 1.097656 -0.105469 1.152344 -0.128906 C 1.210938 -0.148438 1.257812 -0.175781 1.296875 -0.210938 C 1.339844 -0.246094 1.375 -0.285156 1.40625 -0.332031 C 1.4375 -0.378906 1.460938 -0.425781 1.480469 -0.480469 L 1.570312 -0.4375 C 1.503906 -0.265625 1.410156 -0.144531 1.292969 -0.0703125 C 1.179688 0.00390625 1.042969 0.0429688 0.882812 0.0429688 Z "/>
</g>
<g id="glyph-0-1">
<path d="M 1.261719 -0.613281 C 1.261719 -0.53125 1.25 -0.445312 1.222656 -0.363281 C 1.195312 -0.28125 1.15625 -0.214844 1.105469 -0.15625 C 1.050781 -0.0898438 0.984375 -0.0429688 0.910156 -0.0117188 C 0.835938 0.0195312 0.753906 0.0351562 0.664062 0.0351562 C 0.585938 0.0351562 0.511719 0.0234375 0.445312 -0.0078125 C 0.375 -0.0351562 0.3125 -0.078125 0.257812 -0.132812 C 0.207031 -0.1875 0.164062 -0.253906 0.132812 -0.332031 C 0.101562 -0.410156 0.0859375 -0.5 0.0859375 -0.597656 C 0.0859375 -0.785156 0.140625 -0.9375 0.25 -1.058594 C 0.359375 -1.179688 0.503906 -1.238281 0.679688 -1.238281 C 0.847656 -1.238281 0.988281 -1.179688 1.097656 -1.066406 C 1.207031 -0.953125 1.261719 -0.804688 1.261719 -0.613281 M 1.007812 -0.613281 C 1.007812 -0.671875 1.003906 -0.738281 0.992188 -0.804688 C 0.980469 -0.871094 0.960938 -0.929688 0.9375 -0.976562 C 0.910156 -1.027344 0.875 -1.070312 0.832031 -1.097656 C 0.792969 -1.128906 0.738281 -1.144531 0.679688 -1.144531 C 0.617188 -1.144531 0.5625 -1.128906 0.515625 -1.097656 C 0.472656 -1.066406 0.4375 -1.023438 0.410156 -0.972656 C 0.382812 -0.921875 0.363281 -0.867188 0.355469 -0.800781 C 0.34375 -0.738281 0.339844 -0.675781 0.339844 -0.617188 C 0.339844 -0.539062 0.34375 -0.46875 0.355469 -0.402344 C 0.371094 -0.335938 0.390625 -0.277344 0.417969 -0.222656 C 0.445312 -0.171875 0.480469 -0.128906 0.523438 -0.101562 C 0.5625 -0.0703125 0.617188 -0.0546875 0.679688 -0.0546875 C 0.78125 -0.0546875 0.859375 -0.105469 0.921875 -0.203125 C 0.980469 -0.300781 1.007812 -0.4375 1.007812 -0.613281 Z "/>
</g>
<g id="glyph-0-2">
<path d="M 1.40625 -0.0234375 L 0.984375 0.00390625 L 0.96875 -0.0117188 L 0.96875 -0.125 L 0.957031 -0.125 C 0.914062 -0.078125 0.863281 -0.0429688 0.800781 -0.0117188 C 0.738281 0.0195312 0.675781 0.0351562 0.609375 0.0351562 C 0.539062 0.0351562 0.472656 0.0195312 0.410156 -0.0117188 C 0.347656 -0.0429688 0.292969 -0.0859375 0.242188 -0.140625 C 0.195312 -0.195312 0.15625 -0.265625 0.128906 -0.34375 C 0.101562 -0.421875 0.0859375 -0.507812 0.0859375 -0.605469 C 0.0859375 -0.691406 0.101562 -0.773438 0.132812 -0.851562 C 0.164062 -0.929688 0.203125 -1 0.257812 -1.058594 C 0.308594 -1.113281 0.367188 -1.15625 0.441406 -1.1875 C 0.511719 -1.21875 0.585938 -1.238281 0.660156 -1.238281 C 0.714844 -1.238281 0.769531 -1.230469 0.824219 -1.214844 C 0.878906 -1.199219 0.925781 -1.183594 0.964844 -1.160156 L 0.964844 -1.582031 C 0.964844 -1.613281 0.957031 -1.644531 0.945312 -1.675781 C 0.9375 -1.703125 0.921875 -1.722656 0.898438 -1.738281 C 0.875 -1.753906 0.847656 -1.765625 0.808594 -1.773438 C 0.769531 -1.777344 0.726562 -1.785156 0.683594 -1.789062 L 0.683594 -1.863281 L 1.175781 -1.890625 L 1.195312 -1.871094 L 1.195312 -0.25 C 1.195312 -0.21875 1.199219 -0.195312 1.210938 -0.175781 C 1.222656 -0.15625 1.238281 -0.140625 1.257812 -0.125 C 1.273438 -0.117188 1.296875 -0.109375 1.324219 -0.109375 C 1.355469 -0.105469 1.382812 -0.101562 1.40625 -0.101562 L 1.40625 -0.0234375 M 0.964844 -0.234375 L 0.964844 -0.9375 C 0.957031 -0.957031 0.949219 -0.980469 0.933594 -1.007812 C 0.917969 -1.03125 0.898438 -1.050781 0.878906 -1.074219 C 0.855469 -1.09375 0.828125 -1.109375 0.796875 -1.125 C 0.761719 -1.136719 0.726562 -1.144531 0.683594 -1.144531 C 0.636719 -1.144531 0.589844 -1.132812 0.550781 -1.105469 C 0.507812 -1.082031 0.472656 -1.042969 0.441406 -0.996094 C 0.410156 -0.953125 0.386719 -0.894531 0.371094 -0.824219 C 0.351562 -0.753906 0.34375 -0.675781 0.34375 -0.589844 C 0.34375 -0.519531 0.347656 -0.460938 0.363281 -0.402344 C 0.375 -0.347656 0.398438 -0.296875 0.429688 -0.246094 C 0.457031 -0.203125 0.492188 -0.164062 0.539062 -0.136719 C 0.582031 -0.109375 0.632812 -0.0976562 0.695312 -0.0976562 C 0.761719 -0.0976562 0.8125 -0.109375 0.855469 -0.140625 C 0.898438 -0.167969 0.933594 -0.199219 0.964844 -0.234375 Z "/>
</g>
<g id="glyph-0-3">
<path d="M 1.15625 -0.28125 C 1.105469 -0.1875 1.039062 -0.109375 0.953125 -0.0546875 C 0.871094 0.00390625 0.773438 0.03125 0.664062 0.03125 C 0.566406 0.03125 0.480469 0.015625 0.410156 -0.0195312 C 0.335938 -0.0546875 0.277344 -0.101562 0.226562 -0.160156 C 0.179688 -0.21875 0.144531 -0.285156 0.121094 -0.363281 C 0.0976562 -0.441406 0.0859375 -0.523438 0.0859375 -0.613281 C 0.0859375 -0.691406 0.101562 -0.765625 0.125 -0.839844 C 0.148438 -0.917969 0.1875 -0.984375 0.234375 -1.046875 C 0.28125 -1.101562 0.339844 -1.148438 0.40625 -1.183594 C 0.476562 -1.21875 0.554688 -1.238281 0.636719 -1.238281 C 0.726562 -1.238281 0.800781 -1.222656 0.863281 -1.195312 C 0.925781 -1.167969 0.976562 -1.128906 1.015625 -1.082031 C 1.054688 -1.039062 1.082031 -0.984375 1.101562 -0.921875 C 1.117188 -0.859375 1.128906 -0.792969 1.128906 -0.71875 L 1.128906 -0.640625 L 0.332031 -0.640625 C 0.332031 -0.558594 0.339844 -0.488281 0.351562 -0.425781 C 0.367188 -0.359375 0.390625 -0.304688 0.425781 -0.253906 C 0.457031 -0.207031 0.496094 -0.167969 0.550781 -0.140625 C 0.601562 -0.113281 0.660156 -0.101562 0.734375 -0.101562 C 0.804688 -0.101562 0.867188 -0.117188 0.917969 -0.152344 C 0.972656 -0.1875 1.023438 -0.246094 1.070312 -0.335938 L 1.15625 -0.28125 M 0.886719 -0.742188 C 0.886719 -0.789062 0.882812 -0.835938 0.875 -0.886719 C 0.867188 -0.941406 0.855469 -0.984375 0.839844 -1.019531 C 0.820312 -1.054688 0.792969 -1.085938 0.761719 -1.109375 C 0.730469 -1.132812 0.6875 -1.144531 0.636719 -1.144531 C 0.550781 -1.144531 0.480469 -1.109375 0.421875 -1.039062 C 0.367188 -0.96875 0.335938 -0.867188 0.332031 -0.742188 Z "/>
</g>
</g>
</defs>
<g fill="rgb(94.117647%, 94.117647%, 100%)" fill-opacity="1">
<use xlink:href="#glyph-0-0" x="30" y="22.292969"/>
<use xlink:href="#glyph-0-1" x="32" y="22.292969"/>
<use xlink:href="#glyph-0-2" x="33" y="22.292969"/>
<use xlink:href="#glyph-0-3" x="34" y="22.292969"/>
</g>
</svg>
