<?xml version="1.0" encoding="UTF-8"?>
<svg xmlns="http://www.w3.org/2000/svg" xmlns:xlink="http://www.w3.org/1999/xlink" width="1080" height="1920" viewBox="0 0 1080 1920">
<defs>
<g>
<g id="glyph-0-0">
<path d="M 10.75 0 L 6.171875 0 L 6.171875 -0.464844 C 6.269531 -0.472656 6.414062 -0.484375 6.605469 -0.5 C 6.796875 -0.515625 6.929688 -0.542969 7 -0.574219 C 7.148438 -0.632812 7.25 -0.710938 7.304688 -0.808594 C 7.359375 -0.90625 7.386719 -1.03125 7.386719 -1.183594 L 7.386719 -4.101562 L 3.773438 -4.101562 L 3.773438 -1.246094 C 3.773438 -1.113281 3.800781 -0.992188 3.859375 -0.882812 C 3.917969 -0.777344 4.015625 -0.691406 4.152344 -0.632812 C 4.230469 -0.601562 4.359375 -0.566406 4.542969 -0.53125 C 4.726562 -0.496094 4.875 -0.472656 4.988281 -0.464844 L 4.988281 0 L 0.410156 0 L 0.410156 -0.464844 C 0.511719 -0.46875 0.65625 -0.480469 0.851562 -0.503906 C 1.042969 -0.527344 1.183594 -0.554688 1.269531 -0.585938 C 1.414062 -0.636719 1.515625 -0.714844 1.570312 -0.820312 C 1.625 -0.925781 1.652344 -1.050781 1.652344 -1.195312 L 1.652344 -7.1875 C 1.652344 -7.324219 1.628906 -7.441406 1.578125 -7.539062 C 1.527344 -7.632812 1.425781 -7.714844 1.269531 -7.789062 C 1.15625 -7.839844 1.003906 -7.886719 0.816406 -7.929688 C 0.628906 -7.96875 0.496094 -7.996094 0.410156 -8.003906 L 0.410156 -8.46875 L 4.988281 -8.46875 L 4.988281 -8.003906 C 4.867188 -7.996094 4.71875 -7.976562 4.546875 -7.945312 C 4.375 -7.910156 4.246094 -7.882812 4.152344 -7.855469 C 4 -7.800781 3.894531 -7.71875 3.847656 -7.605469 C 3.796875 -7.492188 3.773438 -7.371094 3.773438 -7.246094 L 3.773438 -4.714844 L 7.386719 -4.714844 L 7.386719 -7.1875 C 7.386719 -7.324219 7.363281 -7.441406 7.3125 -7.539062 C 7.257812 -7.632812 7.15625 -7.714844 7 -7.789062 C 6.898438 -7.835938 6.757812 -7.882812 6.585938 -7.921875 C 6.414062 -7.964844 6.273438 -7.992188 6.171875 -8.003906 L 6.171875 -8.46875 L 10.75 -8.46875 L 10.75 -8.003906 C 10.621094 -7.996094 10.476562 -7.976562 10.320312 -7.953125 C 10.160156 -7.925781 10.015625 -7.894531 9.890625 -7.855469 C 9.738281 -7.800781 9.636719 -7.722656 9.585938 -7.609375 C 9.53125 -7.496094 9.507812 -7.375 9.507812 -7.246094 L 9.507812 -1.246094 C 9.507812 -1.105469 9.53125 -0.984375 9.585938 -0.882812 C 9.636719 -0.785156 9.738281 -0.699219 9.890625 -0.632812 C 9.984375 -0.59375 10.121094 -0.558594 10.304688 -0.523438 C 10.484375 -0.492188 10.632812 -0.472656 10.75 -0.464844 Z "/>
</g>
<g id="glyph-0-1">
<path d="M 6.441406 -5.214844 C 6.734375 -4.941406 6.957031 -4.613281 7.113281 -4.230469 C 7.269531 -3.847656 7.347656 -3.4375 7.347656 -2.988281 C 7.347656 -2.546875 7.269531 -2.132812 7.117188 -1.738281 C 6.964844 -1.347656 6.738281 -1.011719 6.445312 -0.734375 C 6.132812 -0.4375 5.757812 -0.207031 5.320312 -0.046875 C 4.886719 0.113281 4.386719 0.191406 3.824219 0.191406 C 3.339844 0.191406 2.894531 0.121094 2.484375 -0.0195312 C 2.078125 -0.15625 1.71875 -0.367188 1.402344 -0.644531 C 1.101562 -0.910156 0.863281 -1.242188 0.6875 -1.632812 C 0.511719 -2.023438 0.421875 -2.460938 0.421875 -2.949219 C 0.421875 -3.425781 0.5 -3.851562 0.652344 -4.222656 C 0.808594 -4.59375 1.035156 -4.925781 1.34375 -5.214844 C 1.636719 -5.496094 2 -5.710938 2.433594 -5.863281 C 2.863281 -6.015625 3.347656 -6.09375 3.878906 -6.09375 C 4.4375 -6.09375 4.925781 -6.015625 5.351562 -5.863281 C 5.773438 -5.710938 6.136719 -5.496094 6.441406 -5.214844 M 4.910156 -1.082031 C 5 -1.304688 5.0625 -1.574219 5.105469 -1.890625 C 5.148438 -2.210938 5.167969 -2.582031 5.167969 -3 C 5.167969 -3.28125 5.148438 -3.597656 5.109375 -3.957031 C 5.070312 -4.316406 5.007812 -4.597656 4.929688 -4.804688 C 4.835938 -5.054688 4.703125 -5.25 4.53125 -5.394531 C 4.363281 -5.539062 4.148438 -5.609375 3.890625 -5.609375 C 3.609375 -5.609375 3.382812 -5.53125 3.214844 -5.378906 C 3.042969 -5.222656 2.914062 -5.019531 2.824219 -4.773438 C 2.738281 -4.546875 2.683594 -4.28125 2.648438 -3.976562 C 2.617188 -3.671875 2.601562 -3.355469 2.601562 -3.027344 C 2.601562 -2.59375 2.617188 -2.234375 2.644531 -1.949219 C 2.671875 -1.664062 2.738281 -1.378906 2.847656 -1.09375 C 2.9375 -0.84375 3.070312 -0.652344 3.242188 -0.507812 C 3.410156 -0.363281 3.628906 -0.292969 3.890625 -0.292969 C 4.128906 -0.292969 4.335938 -0.359375 4.507812 -0.492188 C 4.675781 -0.625 4.8125 -0.820312 4.910156 -1.082031 Z "/>
</g>
<g id="glyph-0-2">
<path d="M 10.636719 -5.484375 C 10.453125 -5.457031 10.28125 -5.394531 10.128906 -5.300781 C 9.972656 -5.210938 9.839844 -5.035156 9.734375 -4.78125 C 9.457031 -4.101562 9.234375 -3.550781 9.066406 -3.132812 C 8.898438 -2.714844 8.664062 -2.113281 8.359375 -1.324219 C 8.296875 -1.160156 8.222656 -0.9375 8.132812 -0.652344 C 8.042969 -0.363281 7.972656 -0.128906 7.917969 0.0546875 L 6.753906 0.0546875 L 5.25 -4.007812 L 3.84375 0.0546875 L 2.691406 0.0546875 C 2.289062 -1.03125 1.972656 -1.875 1.742188 -2.472656 C 1.511719 -3.074219 1.203125 -3.863281 0.816406 -4.847656 C 0.746094 -5.03125 0.625 -5.179688 0.449219 -5.289062 C 0.277344 -5.394531 0.0976562 -5.460938 -0.0820312 -5.484375 L -0.0820312 -5.921875 L 3.582031 -5.921875 L 3.582031 -5.484375 C 3.445312 -5.472656 3.285156 -5.441406 3.097656 -5.390625 C 2.910156 -5.335938 2.816406 -5.269531 2.816406 -5.179688 C 2.816406 -5.140625 2.820312 -5.105469 2.832031 -5.074219 C 2.839844 -5.046875 2.859375 -4.992188 2.882812 -4.910156 C 2.988281 -4.601562 3.136719 -4.199219 3.324219 -3.707031 C 3.511719 -3.214844 3.730469 -2.640625 3.980469 -1.988281 L 5.308594 -5.921875 L 6.492188 -5.921875 L 7.996094 -1.867188 C 8.226562 -2.476562 8.40625 -2.960938 8.53125 -3.3125 C 8.65625 -3.664062 8.8125 -4.117188 9.003906 -4.671875 C 9.03125 -4.757812 9.050781 -4.832031 9.054688 -4.898438 C 9.0625 -4.960938 9.0625 -5.003906 9.058594 -5.023438 C 9.058594 -5.097656 9.023438 -5.160156 8.949219 -5.21875 C 8.878906 -5.277344 8.792969 -5.324219 8.695312 -5.359375 C 8.59375 -5.394531 8.5 -5.421875 8.40625 -5.441406 C 8.3125 -5.460938 8.234375 -5.476562 8.171875 -5.484375 L 8.171875 -5.921875 L 10.636719 -5.921875 Z "/>
</g>
<g id="glyph-0-3">
</g>
<g id="glyph-0-4">
<path d="M 5.074219 0 L 0.375 0 L 0.375 -0.464844 C 0.484375 -0.472656 0.640625 -0.484375 0.851562 -0.5 C 1.058594 -0.515625 1.203125 -0.542969 1.28125 -0.574219 C 1.429688 -0.632812 1.53125 -0.710938 1.585938 -0.808594 C 1.636719 -0.90625 1.664062 -1.03125 1.664062 -1.183594 L 1.664062 -7.1875 C 1.664062 -7.320312 1.640625 -7.441406 1.585938 -7.542969 C 1.535156 -7.648438 1.433594 -7.730469 1.28125 -7.792969 C 1.1875 -7.835938 1.046875 -7.875 0.859375 -7.917969 C 0.671875 -7.957031 0.511719 -7.988281 0.375 -8.003906 L 0.375 -8.46875 L 5.074219 -8.46875 L 5.074219 -8.003906 C 4.953125 -7.992188 4.804688 -7.972656 4.625 -7.953125 C 4.445312 -7.929688 4.296875 -7.898438 4.171875 -7.859375 C 4.015625 -7.808594 3.914062 -7.726562 3.863281 -7.617188 C 3.808594 -7.507812 3.785156 -7.382812 3.785156 -7.246094 L 3.785156 -1.246094 C 3.785156 -1.105469 3.8125 -0.980469 3.863281 -0.878906 C 3.917969 -0.777344 4.019531 -0.695312 4.171875 -0.632812 C 4.253906 -0.597656 4.394531 -0.5625 4.585938 -0.527344 C 4.78125 -0.496094 4.941406 -0.472656 5.074219 -0.464844 Z "/>
</g>
<g id="glyph-0-5">
<path d="M 4.785156 -0.273438 C 4.53125 -0.164062 4.257812 -0.0625 3.96875 0.0273438 C 3.679688 0.117188 3.324219 0.160156 2.90625 0.160156 C 2.285156 0.160156 1.824219 0.0117188 1.523438 -0.292969 C 1.222656 -0.59375 1.074219 -1.023438 1.074219 -1.585938 L 1.074219 -5.246094 L 0 -5.246094 L 0 -5.894531 L 1.097656 -5.894531 L 1.097656 -7.703125 L 3.03125 -7.703125 L 3.03125 -5.894531 L 4.707031 -5.894531 L 4.707031 -5.246094 L 3.042969 -5.246094 L 3.042969 -1.980469 C 3.042969 -1.515625 3.109375 -1.183594 3.238281 -0.992188 C 3.367188 -0.796875 3.601562 -0.699219 3.9375 -0.699219 C 4.042969 -0.699219 4.195312 -0.707031 4.386719 -0.722656 C 4.578125 -0.738281 4.710938 -0.757812 4.785156 -0.777344 Z "/>
</g>
<g id="glyph-0-6">
<path d="M 13.996094 -7.992188 C 13.871094 -7.980469 13.75 -7.953125 13.625 -7.910156 C 13.5 -7.867188 13.378906 -7.816406 13.261719 -7.753906 C 13.078125 -7.648438 12.949219 -7.535156 12.871094 -7.414062 C 12.792969 -7.289062 12.722656 -7.140625 12.660156 -6.964844 C 12.441406 -6.359375 12.101562 -5.390625 11.648438 -4.058594 C 11.191406 -2.726562 10.714844 -1.339844 10.222656 0.09375 L 9.015625 0.09375 L 6.789062 -6.195312 L 4.773438 0.09375 L 3.570312 0.09375 C 2.90625 -1.839844 2.394531 -3.328125 2.042969 -4.371094 C 1.6875 -5.417969 1.386719 -6.292969 1.144531 -7 C 1.070312 -7.214844 0.984375 -7.371094 0.890625 -7.46875 C 0.792969 -7.566406 0.671875 -7.664062 0.519531 -7.765625 C 0.410156 -7.835938 0.296875 -7.890625 0.175781 -7.921875 C 0.0546875 -7.957031 -0.0859375 -7.984375 -0.246094 -8.003906 L -0.246094 -8.46875 L 4.273438 -8.46875 L 4.273438 -8.015625 C 4.007812 -7.984375 3.808594 -7.953125 3.675781 -7.921875 C 3.546875 -7.894531 3.441406 -7.863281 3.367188 -7.832031 C 3.296875 -7.796875 3.253906 -7.765625 3.238281 -7.730469 C 3.222656 -7.691406 3.210938 -7.660156 3.210938 -7.632812 C 3.210938 -7.578125 3.21875 -7.523438 3.234375 -7.472656 C 3.246094 -7.421875 3.261719 -7.359375 3.277344 -7.292969 C 3.375 -6.984375 3.566406 -6.394531 3.859375 -5.527344 C 4.148438 -4.660156 4.507812 -3.585938 4.933594 -2.304688 L 6.863281 -8.46875 L 8.128906 -8.46875 L 10.359375 -2.105469 C 10.6875 -3.128906 10.953125 -3.964844 11.148438 -4.613281 C 11.34375 -5.261719 11.511719 -5.816406 11.648438 -6.277344 C 11.726562 -6.5625 11.789062 -6.796875 11.835938 -6.988281 C 11.886719 -7.179688 11.910156 -7.34375 11.910156 -7.484375 C 11.910156 -7.566406 11.871094 -7.640625 11.792969 -7.699219 C 11.714844 -7.757812 11.609375 -7.808594 11.480469 -7.855469 C 11.371094 -7.890625 11.226562 -7.917969 11.046875 -7.941406 C 10.871094 -7.960938 10.71875 -7.980469 10.585938 -7.992188 L 10.585938 -8.46875 L 13.996094 -8.46875 Z "/>
</g>
<g id="glyph-0-7">
<path d="M 6.289062 -4.828125 C 6.289062 -4.527344 6.195312 -4.261719 6.011719 -4.03125 C 5.824219 -3.800781 5.578125 -3.6875 5.269531 -3.6875 C 4.980469 -3.6875 4.734375 -3.761719 4.53125 -3.90625 C 4.332031 -4.054688 4.230469 -4.269531 4.230469 -4.554688 C 4.230469 -4.695312 4.242188 -4.800781 4.261719 -4.878906 C 4.28125 -4.957031 4.300781 -5.03125 4.316406 -5.097656 C 4.132812 -5.089844 3.9375 -5.027344 3.734375 -4.90625 C 3.53125 -4.789062 3.355469 -4.632812 3.199219 -4.433594 L 3.199219 -1.15625 C 3.199219 -1.019531 3.222656 -0.902344 3.265625 -0.8125 C 3.308594 -0.71875 3.382812 -0.648438 3.484375 -0.597656 C 3.574219 -0.554688 3.714844 -0.515625 3.910156 -0.488281 C 4.109375 -0.457031 4.25 -0.441406 4.339844 -0.4375 L 4.339844 0 L 0.347656 0 L 0.347656 -0.4375 C 0.445312 -0.445312 0.546875 -0.453125 0.648438 -0.46875 C 0.75 -0.480469 0.835938 -0.5 0.90625 -0.523438 C 1.035156 -0.570312 1.121094 -0.636719 1.167969 -0.726562 C 1.21875 -0.820312 1.242188 -0.9375 1.242188 -1.085938 L 1.242188 -4.558594 C 1.242188 -4.703125 1.207031 -4.832031 1.140625 -4.945312 C 1.074219 -5.058594 0.992188 -5.148438 0.894531 -5.214844 C 0.824219 -5.265625 0.734375 -5.304688 0.625 -5.335938 C 0.515625 -5.367188 0.394531 -5.390625 0.261719 -5.402344 L 0.261719 -5.835938 L 3.109375 -5.992188 L 3.199219 -5.902344 L 3.199219 -5.035156 L 3.222656 -5.035156 C 3.496094 -5.355469 3.789062 -5.605469 4.097656 -5.785156 C 4.40625 -5.96875 4.726562 -6.058594 5.0625 -6.058594 C 5.429688 -6.058594 5.726562 -5.941406 5.953125 -5.714844 C 6.179688 -5.484375 6.289062 -5.191406 6.289062 -4.828125 Z "/>
</g>
<g id="glyph-0-8">
<path d="M 8.003906 0 L 5.191406 0 C 4.84375 -0.605469 4.527344 -1.121094 4.242188 -1.542969 C 3.957031 -1.96875 3.683594 -2.359375 3.429688 -2.71875 L 3.078125 -2.421875 L 3.078125 -1.121094 C 3.078125 -0.980469 3.101562 -0.863281 3.140625 -0.769531 C 3.183594 -0.679688 3.265625 -0.609375 3.382812 -0.566406 C 3.457031 -0.535156 3.539062 -0.507812 3.632812 -0.484375 C 3.730469 -0.460938 3.824219 -0.445312 3.921875 -0.4375 L 3.921875 0 L 0.214844 0 L 0.214844 -0.4375 C 0.316406 -0.445312 0.414062 -0.453125 0.515625 -0.46875 C 0.617188 -0.480469 0.703125 -0.5 0.78125 -0.523438 C 0.90625 -0.570312 0.996094 -0.636719 1.039062 -0.726562 C 1.085938 -0.820312 1.109375 -0.9375 1.109375 -1.085938 L 1.109375 -7.742188 C 1.109375 -7.871094 1.082031 -8.007812 1.023438 -8.148438 C 0.964844 -8.289062 0.882812 -8.398438 0.769531 -8.46875 C 0.695312 -8.515625 0.582031 -8.554688 0.429688 -8.589844 C 0.277344 -8.621094 0.140625 -8.640625 0.0195312 -8.648438 L 0.0195312 -9.082031 L 2.988281 -9.238281 L 3.078125 -9.144531 L 3.078125 -2.984375 C 3.375 -3.246094 3.703125 -3.550781 4.070312 -3.898438 C 4.441406 -4.242188 4.734375 -4.53125 4.957031 -4.757812 C 5.089844 -4.890625 5.160156 -4.996094 5.175781 -5.0625 C 5.1875 -5.132812 5.195312 -5.175781 5.195312 -5.191406 C 5.195312 -5.265625 5.132812 -5.324219 5.007812 -5.371094 C 4.882812 -5.417969 4.691406 -5.460938 4.441406 -5.496094 L 4.441406 -5.921875 L 7.472656 -5.921875 L 7.472656 -5.507812 C 7.074219 -5.398438 6.773438 -5.292969 6.5625 -5.195312 C 6.355469 -5.097656 6.128906 -4.96875 5.882812 -4.804688 C 5.71875 -4.695312 5.558594 -4.585938 5.40625 -4.464844 C 5.253906 -4.347656 5.078125 -4.203125 4.882812 -4.027344 C 5.269531 -3.460938 5.628906 -2.9375 5.960938 -2.457031 C 6.289062 -1.976562 6.632812 -1.46875 6.996094 -0.929688 C 7.117188 -0.742188 7.273438 -0.617188 7.453125 -0.554688 C 7.636719 -0.492188 7.820312 -0.453125 8.003906 -0.4375 Z "/>
</g>
<g id="glyph-0-9">
<path d="M 3.109375 0.203125 C 2.722656 0.203125 2.347656 0.144531 1.976562 0.03125 C 1.609375 -0.0820312 1.324219 -0.199219 1.121094 -0.328125 L 0.941406 0.078125 L 0.476562 0.078125 L 0.398438 -2.148438 L 0.835938 -2.148438 C 0.894531 -1.96875 0.996094 -1.765625 1.132812 -1.542969 C 1.273438 -1.316406 1.433594 -1.117188 1.613281 -0.9375 C 1.796875 -0.757812 2.011719 -0.605469 2.253906 -0.484375 C 2.492188 -0.359375 2.75 -0.296875 3.027344 -0.296875 C 3.386719 -0.296875 3.65625 -0.367188 3.835938 -0.511719 C 4.011719 -0.652344 4.101562 -0.871094 4.101562 -1.164062 C 4.101562 -1.324219 4.058594 -1.453125 3.980469 -1.558594 C 3.902344 -1.660156 3.792969 -1.75 3.652344 -1.828125 C 3.496094 -1.90625 3.328125 -1.972656 3.140625 -2.027344 C 2.957031 -2.085938 2.730469 -2.152344 2.457031 -2.230469 C 2.1875 -2.3125 1.957031 -2.390625 1.761719 -2.472656 C 1.570312 -2.554688 1.371094 -2.683594 1.164062 -2.859375 C 0.984375 -3.015625 0.839844 -3.199219 0.734375 -3.417969 C 0.625 -3.636719 0.574219 -3.898438 0.574219 -4.203125 C 0.574219 -4.761719 0.808594 -5.214844 1.28125 -5.5625 C 1.75 -5.910156 2.371094 -6.082031 3.132812 -6.082031 C 3.496094 -6.082031 3.828125 -6.042969 4.132812 -5.972656 C 4.4375 -5.898438 4.691406 -5.816406 4.898438 -5.730469 L 5.023438 -6.082031 L 5.480469 -6.082031 L 5.574219 -4.046875 L 5.15625 -4.046875 C 5.015625 -4.460938 4.777344 -4.816406 4.441406 -5.117188 C 4.101562 -5.417969 3.738281 -5.566406 3.347656 -5.566406 C 3.042969 -5.566406 2.800781 -5.503906 2.625 -5.378906 C 2.449219 -5.25 2.363281 -5.074219 2.363281 -4.847656 C 2.363281 -4.542969 2.492188 -4.324219 2.746094 -4.191406 C 3.003906 -4.054688 3.363281 -3.925781 3.824219 -3.808594 C 4.535156 -3.625 5.054688 -3.375 5.382812 -3.058594 C 5.714844 -2.742188 5.878906 -2.339844 5.878906 -1.851562 C 5.878906 -1.199219 5.621094 -0.691406 5.113281 -0.335938 C 4.601562 0.0234375 3.933594 0.203125 3.109375 0.203125 Z "/>
</g>
</g>
</defs>
<g fill="rgb(94.117647%, 94.117647%, 100%)" fill-opacity="1">
<use xlink:href="#glyph-0-0" x="30" y="31.208008"/>
<use xlink:href="#glyph-0-1" x="41" y="31.208008"/>
<use xlink:href="#glyph-0-2" x="49" y="31.208008"/>
<use xlink:href="#glyph-0-3" x="60" y="31.208008"/>
<use xlink:href="#glyph-0-4" x="63" y="31.208008"/>
<use xlink:href="#glyph-0-5" x="68" y="31.208008"/>
<use xlink:href="#glyph-0-3" x="73" y="31.208008"/>
<use xlink:href="#glyph-0-6" x="76" y="31.208008"/>
<use xlink:href="#glyph-0-1" x="90" y="31.208008"/>
<use xlink:href="#glyph-0-7" x="98" y="31.208008"/>
<use xlink:href="#glyph-0-8" x="104" y="31.208008"/>
<use xlink:href="#glyph-0-9" x="112" y="31.208008"/>
</g>
</svg>
