<?xml version="1.0" encoding="UTF-8"?>
<svg xmlns="http://www.w3.org/2000/svg" xmlns:xlink="http://www.w3.org/1999/xlink" width="1080" height="1920" viewBox="0 0 1080 1920">
<defs>
<g>
<g id="glyph-0-0">
<path d="M 3.03125 -3.421875 L 3.03125 -1.339844 L 3.648438 -1.339844 L 3.648438 -1.195312 L 3.03125 -1.195312 L 3.03125 -0.722656 C 3.03125 -0.613281 3.175781 -0.554688 3.464844 -0.554688 L 3.464844 -0.453125 L 2.183594 -0.453125 L 2.183594 -0.554688 C 2.5 -0.554688 2.660156 -0.617188 2.660156 -0.742188 L 2.660156 -1.195312 L 1.339844 -1.195312 L 1.339844 -1.296875 L 2.699219 -3.421875 L 3.03125 -3.421875 M 2.660156 -1.339844 L 2.660156 -3.03125 L 1.566406 -1.339844 L 2.660156 -1.339844 M 4.433594 -0.207031 C 4.019531 0.246094 3.460938 0.496094 2.753906 0.535156 C 2.042969 0.578125 1.441406 0.355469 0.9375 -0.125 C 0.4375 -0.605469 0.183594 -1.167969 0.175781 -1.8125 C 0.167969 -2.460938 0.34375 -2.996094 0.699219 -3.421875 C 1.058594 -3.847656 1.414062 -4.109375 1.773438 -4.207031 C 2.128906 -4.300781 2.425781 -4.351562 2.660156 -4.351562 C 2.867188 -4.351562 3.136719 -4.308594 3.472656 -4.226562 C 3.808594 -4.144531 4.164062 -3.886719 4.535156 -3.453125 C 4.90625 -3.019531 5.085938 -2.484375 5.070312 -1.84375 C 5.058594 -1.207031 4.84375 -0.660156 4.433594 -0.207031 M 3.503906 0.226562 C 3.847656 0.117188 4.171875 -0.144531 4.472656 -0.554688 C 4.777344 -0.96875 4.914062 -1.472656 4.886719 -2.070312 C 4.859375 -2.667969 4.621094 -3.179688 4.175781 -3.597656 C 3.726562 -4.015625 3.191406 -4.214844 2.566406 -4.195312 C 1.941406 -4.175781 1.410156 -3.933594 0.980469 -3.472656 C 0.546875 -3.011719 0.335938 -2.480469 0.351562 -1.875 C 0.363281 -1.269531 0.554688 -0.777344 0.917969 -0.390625 C 1.28125 -0.0078125 1.613281 0.21875 1.917969 0.289062 C 2.21875 0.355469 2.453125 0.390625 2.617188 0.390625 C 2.867188 0.390625 3.160156 0.335938 3.503906 0.226562 Z "/>
</g>
<g id="glyph-1-0">
</g>
<g id="glyph-1-1">
<path d="M 3.8125 0 L 2.828125 0 C 2.609375 -0.34375 2.414062 -0.636719 2.238281 -0.886719 C 2.0625 -1.136719 1.871094 -1.390625 1.664062 -1.65625 L 1.289062 -1.65625 L 1.289062 -0.496094 C 1.289062 -0.4375 1.300781 -0.382812 1.320312 -0.339844 C 1.339844 -0.292969 1.378906 -0.257812 1.441406 -0.234375 C 1.472656 -0.222656 1.527344 -0.210938 1.601562 -0.199219 C 1.679688 -0.191406 1.746094 -0.183594 1.796875 -0.183594 L 1.796875 0 L 0.253906 0 L 0.253906 -0.183594 C 0.292969 -0.1875 0.351562 -0.191406 0.429688 -0.199219 C 0.511719 -0.210938 0.5625 -0.222656 0.59375 -0.234375 C 0.648438 -0.257812 0.683594 -0.289062 0.707031 -0.332031 C 0.730469 -0.375 0.742188 -0.429688 0.742188 -0.496094 L 0.742188 -3.140625 C 0.742188 -3.203125 0.734375 -3.253906 0.714844 -3.300781 C 0.699219 -3.347656 0.660156 -3.382812 0.59375 -3.40625 C 0.550781 -3.421875 0.496094 -3.4375 0.429688 -3.449219 C 0.359375 -3.460938 0.300781 -3.46875 0.253906 -3.472656 L 0.253906 -3.65625 L 1.941406 -3.65625 C 2.09375 -3.65625 2.238281 -3.640625 2.375 -3.609375 C 2.511719 -3.578125 2.632812 -3.527344 2.746094 -3.457031 C 2.851562 -3.386719 2.9375 -3.296875 3 -3.1875 C 3.0625 -3.074219 3.09375 -2.941406 3.09375 -2.785156 C 3.09375 -2.644531 3.074219 -2.519531 3.03125 -2.410156 C 2.988281 -2.304688 2.925781 -2.210938 2.839844 -2.132812 C 2.761719 -2.058594 2.667969 -1.992188 2.5625 -1.9375 C 2.453125 -1.886719 2.332031 -1.839844 2.203125 -1.800781 C 2.382812 -1.5625 2.535156 -1.363281 2.652344 -1.199219 C 2.773438 -1.035156 2.917969 -0.835938 3.09375 -0.601562 C 3.167969 -0.5 3.234375 -0.425781 3.296875 -0.375 C 3.359375 -0.324219 3.417969 -0.285156 3.480469 -0.253906 C 3.523438 -0.234375 3.578125 -0.214844 3.644531 -0.203125 C 3.714844 -0.191406 3.769531 -0.183594 3.8125 -0.183594 L 3.8125 0 M 2.457031 -2.726562 C 2.457031 -2.945312 2.394531 -3.121094 2.269531 -3.25 C 2.140625 -3.378906 1.960938 -3.445312 1.730469 -3.445312 L 1.289062 -3.445312 L 1.289062 -1.878906 L 1.628906 -1.878906 C 1.867188 -1.878906 2.0625 -1.953125 2.222656 -2.105469 C 2.378906 -2.257812 2.457031 -2.464844 2.457031 -2.726562 Z "/>
</g>
<g id="glyph-1-2">
<path d="M 2.910156 -0.046875 L 2.078125 0.0117188 L 2.039062 -0.0273438 L 2.039062 -0.347656 L 2.027344 -0.347656 C 1.984375 -0.304688 1.9375 -0.257812 1.886719 -0.210938 C 1.835938 -0.160156 1.777344 -0.117188 1.710938 -0.078125 C 1.632812 -0.03125 1.558594 0.00390625 1.484375 0.0273438 C 1.414062 0.0507812 1.3125 0.0625 1.179688 0.0625 C 0.953125 0.0625 0.785156 -0.0078125 0.664062 -0.15625 C 0.546875 -0.300781 0.488281 -0.515625 0.488281 -0.796875 L 0.488281 -2.011719 C 0.488281 -2.070312 0.476562 -2.125 0.453125 -2.164062 C 0.429688 -2.207031 0.398438 -2.246094 0.351562 -2.277344 C 0.320312 -2.296875 0.28125 -2.3125 0.234375 -2.320312 C 0.1875 -2.328125 0.140625 -2.335938 0.0859375 -2.339844 L 0.0859375 -2.511719 L 0.933594 -2.570312 L 0.972656 -2.535156 L 0.972656 -0.769531 C 0.972656 -0.585938 1.015625 -0.449219 1.097656 -0.355469 C 1.179688 -0.261719 1.277344 -0.214844 1.394531 -0.214844 C 1.488281 -0.214844 1.574219 -0.230469 1.648438 -0.261719 C 1.71875 -0.289062 1.78125 -0.324219 1.832031 -0.363281 C 1.878906 -0.398438 1.917969 -0.4375 1.953125 -0.476562 C 1.988281 -0.519531 2.015625 -0.554688 2.035156 -0.589844 L 2.035156 -2.027344 C 2.035156 -2.085938 2.023438 -2.136719 2 -2.179688 C 1.976562 -2.222656 1.941406 -2.261719 1.898438 -2.289062 C 1.867188 -2.3125 1.820312 -2.324219 1.761719 -2.328125 C 1.699219 -2.332031 1.632812 -2.335938 1.554688 -2.339844 L 1.554688 -2.511719 L 2.480469 -2.570312 L 2.519531 -2.535156 L 2.519531 -0.519531 C 2.519531 -0.460938 2.53125 -0.410156 2.554688 -0.371094 C 2.582031 -0.328125 2.613281 -0.292969 2.65625 -0.265625 C 2.6875 -0.246094 2.722656 -0.234375 2.765625 -0.226562 C 2.808594 -0.222656 2.859375 -0.21875 2.910156 -0.214844 Z "/>
</g>
<g id="glyph-1-3">
<path d="M 2.992188 0 L 1.75 0 L 1.75 -0.171875 C 1.789062 -0.171875 1.832031 -0.175781 1.878906 -0.179688 C 1.925781 -0.183594 1.964844 -0.191406 1.996094 -0.199219 C 2.046875 -0.214844 2.082031 -0.242188 2.105469 -0.28125 C 2.128906 -0.320312 2.140625 -0.371094 2.140625 -0.433594 L 2.140625 -1.738281 C 2.140625 -1.917969 2.097656 -2.058594 2.011719 -2.15625 C 1.925781 -2.253906 1.820312 -2.304688 1.699219 -2.304688 C 1.609375 -2.304688 1.523438 -2.289062 1.449219 -2.261719 C 1.375 -2.234375 1.304688 -2.199219 1.246094 -2.15625 C 1.191406 -2.117188 1.144531 -2.074219 1.113281 -2.027344 C 1.078125 -1.984375 1.054688 -1.945312 1.039062 -1.917969 L 1.039062 -0.457031 C 1.039062 -0.398438 1.050781 -0.351562 1.074219 -0.3125 C 1.097656 -0.277344 1.132812 -0.246094 1.183594 -0.226562 C 1.21875 -0.210938 1.257812 -0.195312 1.300781 -0.1875 C 1.34375 -0.179688 1.386719 -0.171875 1.429688 -0.171875 L 1.429688 0 L 0.183594 0 L 0.183594 -0.171875 C 0.226562 -0.171875 0.265625 -0.175781 0.308594 -0.179688 C 0.351562 -0.183594 0.386719 -0.191406 0.417969 -0.199219 C 0.464844 -0.214844 0.5 -0.242188 0.523438 -0.28125 C 0.546875 -0.320312 0.558594 -0.371094 0.558594 -0.433594 L 0.558594 -2 C 0.558594 -2.058594 0.546875 -2.113281 0.523438 -2.160156 C 0.496094 -2.210938 0.460938 -2.25 0.417969 -2.28125 C 0.386719 -2.300781 0.347656 -2.316406 0.300781 -2.324219 C 0.257812 -2.335938 0.207031 -2.339844 0.15625 -2.34375 L 0.15625 -2.515625 L 1.003906 -2.570312 L 1.039062 -2.535156 L 1.039062 -2.175781 L 1.050781 -2.175781 C 1.09375 -2.21875 1.144531 -2.269531 1.207031 -2.324219 C 1.269531 -2.382812 1.328125 -2.429688 1.382812 -2.464844 C 1.445312 -2.507812 1.519531 -2.542969 1.609375 -2.570312 C 1.695312 -2.597656 1.792969 -2.609375 1.902344 -2.609375 C 2.148438 -2.609375 2.328125 -2.535156 2.445312 -2.382812 C 2.5625 -2.230469 2.625 -2.027344 2.625 -1.777344 L 2.625 -0.453125 C 2.625 -0.394531 2.632812 -0.34375 2.652344 -0.308594 C 2.675781 -0.269531 2.710938 -0.242188 2.761719 -0.222656 C 2.800781 -0.203125 2.835938 -0.191406 2.867188 -0.183594 C 2.898438 -0.179688 2.9375 -0.171875 2.992188 -0.171875 Z "/>
</g>
<g id="glyph-1-4">
<path d="M 3.746094 -2.132812 C 3.644531 -2.125 3.542969 -2.105469 3.441406 -2.074219 C 3.335938 -2.042969 3.257812 -1.992188 3.203125 -1.921875 C 3.167969 -1.882812 3.128906 -1.820312 3.09375 -1.738281 C 3.058594 -1.660156 3.011719 -1.5625 2.960938 -1.453125 C 2.910156 -1.34375 2.855469 -1.234375 2.804688 -1.128906 C 2.75 -1.023438 2.683594 -0.914062 2.597656 -0.808594 C 2.667969 -0.726562 2.75 -0.636719 2.851562 -0.539062 C 2.949219 -0.441406 3.035156 -0.371094 3.105469 -0.328125 C 3.175781 -0.289062 3.273438 -0.257812 3.398438 -0.230469 C 3.523438 -0.203125 3.628906 -0.1875 3.707031 -0.183594 L 3.707031 0 L 2.644531 0 L 2.261719 -0.4375 C 2.207031 -0.375 2.140625 -0.3125 2.066406 -0.246094 C 1.996094 -0.179688 1.917969 -0.121094 1.835938 -0.0742188 C 1.746094 -0.0234375 1.65625 0.015625 1.566406 0.046875 C 1.476562 0.0742188 1.371094 0.0898438 1.25 0.0898438 C 1.121094 0.0898438 0.996094 0.0703125 0.871094 0.0351562 C 0.746094 -0.00390625 0.632812 -0.0625 0.527344 -0.140625 C 0.429688 -0.222656 0.347656 -0.320312 0.285156 -0.445312 C 0.222656 -0.570312 0.191406 -0.71875 0.191406 -0.890625 C 0.191406 -1.101562 0.25 -1.292969 0.363281 -1.46875 C 0.472656 -1.640625 0.683594 -1.824219 0.992188 -2.019531 C 0.851562 -2.203125 0.746094 -2.359375 0.667969 -2.496094 C 0.589844 -2.628906 0.550781 -2.777344 0.550781 -2.945312 C 0.550781 -3.0625 0.574219 -3.171875 0.621094 -3.269531 C 0.667969 -3.371094 0.734375 -3.457031 0.820312 -3.53125 C 0.902344 -3.597656 0.996094 -3.648438 1.109375 -3.6875 C 1.222656 -3.726562 1.339844 -3.742188 1.457031 -3.742188 C 1.59375 -3.742188 1.714844 -3.722656 1.816406 -3.679688 C 1.921875 -3.632812 2.007812 -3.578125 2.070312 -3.507812 C 2.132812 -3.441406 2.179688 -3.367188 2.210938 -3.28125 C 2.242188 -3.195312 2.257812 -3.109375 2.257812 -3.023438 C 2.257812 -2.816406 2.195312 -2.640625 2.066406 -2.492188 C 1.9375 -2.34375 1.761719 -2.207031 1.539062 -2.089844 C 1.699219 -1.871094 1.855469 -1.671875 2.011719 -1.492188 C 2.167969 -1.3125 2.316406 -1.136719 2.457031 -0.964844 C 2.570312 -1.148438 2.660156 -1.320312 2.722656 -1.484375 C 2.789062 -1.644531 2.820312 -1.789062 2.820312 -1.910156 C 2.820312 -1.96875 2.777344 -2.011719 2.699219 -2.042969 C 2.621094 -2.074219 2.507812 -2.105469 2.367188 -2.132812 L 2.367188 -2.316406 L 3.746094 -2.316406 L 3.746094 -2.132812 M 1.925781 -2.972656 C 1.925781 -3.144531 1.886719 -3.28125 1.808594 -3.375 C 1.730469 -3.46875 1.621094 -3.515625 1.480469 -3.515625 C 1.398438 -3.515625 1.332031 -3.5 1.28125 -3.464844 C 1.226562 -3.433594 1.179688 -3.390625 1.144531 -3.34375 C 1.109375 -3.292969 1.085938 -3.242188 1.070312 -3.1875 C 1.054688 -3.132812 1.046875 -3.082031 1.046875 -3.039062 C 1.046875 -2.921875 1.078125 -2.800781 1.140625 -2.679688 C 1.199219 -2.558594 1.296875 -2.414062 1.425781 -2.242188 C 1.601562 -2.339844 1.730469 -2.449219 1.808594 -2.566406 C 1.886719 -2.679688 1.925781 -2.816406 1.925781 -2.972656 M 2.125 -0.585938 C 1.964844 -0.789062 1.785156 -1.011719 1.585938 -1.253906 C 1.386719 -1.496094 1.226562 -1.699219 1.105469 -1.867188 C 0.964844 -1.769531 0.867188 -1.65625 0.808594 -1.527344 C 0.753906 -1.398438 0.722656 -1.25 0.722656 -1.082031 C 0.722656 -0.847656 0.789062 -0.65625 0.921875 -0.5 C 1.058594 -0.347656 1.234375 -0.269531 1.457031 -0.269531 C 1.582031 -0.269531 1.707031 -0.296875 1.828125 -0.351562 C 1.949219 -0.40625 2.046875 -0.484375 2.125 -0.585938 Z "/>
</g>
<g id="glyph-1-5">
<path d="M 1.753906 -0.109375 C 1.644531 -0.0625 1.539062 -0.0234375 1.4375 0.0078125 C 1.339844 0.0390625 1.214844 0.0546875 1.070312 0.0546875 C 0.859375 0.0546875 0.710938 0 0.621094 -0.105469 C 0.535156 -0.214844 0.492188 -0.367188 0.492188 -0.5625 L 0.492188 -2.28125 L 0.0351562 -2.28125 L 0.0351562 -2.53125 L 0.503906 -2.53125 L 0.503906 -3.320312 L 0.972656 -3.320312 L 0.972656 -2.53125 L 1.699219 -2.53125 L 1.699219 -2.28125 L 0.976562 -2.28125 L 0.976562 -0.863281 C 0.976562 -0.757812 0.980469 -0.667969 0.988281 -0.597656 C 0.996094 -0.523438 1.015625 -0.464844 1.042969 -0.410156 C 1.070312 -0.359375 1.113281 -0.320312 1.167969 -0.296875 C 1.222656 -0.269531 1.296875 -0.257812 1.390625 -0.257812 C 1.433594 -0.257812 1.496094 -0.261719 1.578125 -0.269531 C 1.660156 -0.277344 1.71875 -0.285156 1.753906 -0.300781 Z "/>
</g>
<g id="glyph-1-6">
<path d="M 2.441406 -0.597656 C 2.335938 -0.394531 2.195312 -0.234375 2.015625 -0.113281 C 1.835938 0.0078125 1.632812 0.0664062 1.398438 0.0664062 C 1.195312 0.0664062 1.015625 0.03125 0.863281 -0.0429688 C 0.707031 -0.113281 0.582031 -0.210938 0.480469 -0.335938 C 0.382812 -0.457031 0.308594 -0.601562 0.257812 -0.769531 C 0.210938 -0.933594 0.183594 -1.105469 0.183594 -1.289062 C 0.183594 -1.457031 0.210938 -1.617188 0.265625 -1.777344 C 0.316406 -1.9375 0.394531 -2.078125 0.496094 -2.207031 C 0.59375 -2.328125 0.714844 -2.425781 0.859375 -2.5 C 1.003906 -2.574219 1.167969 -2.613281 1.347656 -2.613281 C 1.535156 -2.613281 1.691406 -2.582031 1.824219 -2.523438 C 1.957031 -2.46875 2.0625 -2.386719 2.148438 -2.285156 C 2.226562 -2.1875 2.285156 -2.074219 2.324219 -1.945312 C 2.363281 -1.816406 2.382812 -1.671875 2.382812 -1.519531 L 2.382812 -1.351562 L 0.699219 -1.351562 C 0.699219 -1.183594 0.714844 -1.03125 0.746094 -0.894531 C 0.777344 -0.757812 0.828125 -0.640625 0.898438 -0.535156 C 0.964844 -0.4375 1.050781 -0.359375 1.160156 -0.300781 C 1.269531 -0.242188 1.398438 -0.214844 1.546875 -0.214844 C 1.699219 -0.214844 1.832031 -0.25 1.941406 -0.320312 C 2.050781 -0.394531 2.160156 -0.523438 2.261719 -0.707031 L 2.441406 -0.597656 M 1.875 -1.566406 C 1.875 -1.664062 1.863281 -1.765625 1.847656 -1.875 C 1.832031 -1.984375 1.804688 -2.078125 1.769531 -2.148438 C 1.730469 -2.230469 1.675781 -2.292969 1.609375 -2.34375 C 1.539062 -2.390625 1.449219 -2.417969 1.34375 -2.417969 C 1.164062 -2.417969 1.011719 -2.34375 0.894531 -2.191406 C 0.773438 -2.042969 0.707031 -1.832031 0.699219 -1.566406 Z "/>
</g>
<g id="glyph-1-7">
<path d="M 1.863281 -1.246094 C 1.933594 -1.183594 1.988281 -1.113281 2.023438 -1.03125 C 2.0625 -0.949219 2.082031 -0.851562 2.082031 -0.734375 C 2.082031 -0.5 1.992188 -0.308594 1.816406 -0.15625 C 1.640625 -0.0078125 1.414062 0.0664062 1.132812 0.0664062 C 0.984375 0.0664062 0.851562 0.0390625 0.726562 -0.0117188 C 0.601562 -0.0664062 0.511719 -0.113281 0.457031 -0.160156 L 0.40625 0.0078125 L 0.214844 0.0078125 L 0.1875 -0.875 L 0.367188 -0.875 C 0.378906 -0.808594 0.410156 -0.730469 0.453125 -0.640625 C 0.5 -0.550781 0.550781 -0.46875 0.617188 -0.398438 C 0.683594 -0.320312 0.761719 -0.257812 0.855469 -0.207031 C 0.949219 -0.15625 1.054688 -0.128906 1.171875 -0.128906 C 1.335938 -0.128906 1.464844 -0.167969 1.554688 -0.242188 C 1.644531 -0.316406 1.6875 -0.425781 1.6875 -0.5625 C 1.6875 -0.636719 1.671875 -0.699219 1.644531 -0.75 C 1.617188 -0.804688 1.574219 -0.847656 1.519531 -0.890625 C 1.464844 -0.929688 1.394531 -0.964844 1.3125 -0.996094 C 1.230469 -1.027344 1.136719 -1.058594 1.035156 -1.089844 C 0.957031 -1.113281 0.867188 -1.148438 0.765625 -1.1875 C 0.667969 -1.230469 0.582031 -1.28125 0.511719 -1.335938 C 0.4375 -1.398438 0.375 -1.472656 0.328125 -1.558594 C 0.277344 -1.648438 0.253906 -1.75 0.253906 -1.867188 C 0.253906 -2.074219 0.332031 -2.253906 0.488281 -2.394531 C 0.640625 -2.539062 0.847656 -2.613281 1.109375 -2.613281 C 1.207031 -2.613281 1.308594 -2.601562 1.414062 -2.574219 C 1.515625 -2.546875 1.601562 -2.515625 1.667969 -2.480469 L 1.726562 -2.617188 L 1.910156 -2.617188 L 1.949219 -1.796875 L 1.773438 -1.796875 C 1.738281 -1.980469 1.660156 -2.128906 1.539062 -2.246094 C 1.421875 -2.359375 1.273438 -2.417969 1.101562 -2.417969 C 0.960938 -2.417969 0.851562 -2.382812 0.769531 -2.3125 C 0.691406 -2.238281 0.648438 -2.152344 0.648438 -2.054688 C 0.648438 -1.976562 0.664062 -1.910156 0.6875 -1.859375 C 0.714844 -1.808594 0.757812 -1.765625 0.808594 -1.730469 C 0.859375 -1.695312 0.925781 -1.664062 1.003906 -1.632812 C 1.082031 -1.601562 1.179688 -1.570312 1.292969 -1.53125 C 1.40625 -1.496094 1.515625 -1.453125 1.613281 -1.40625 C 1.714844 -1.355469 1.796875 -1.304688 1.863281 -1.246094 Z "/>
</g>
</g>
</defs>
<g fill="rgb(100%, 41.960784%, 20.784314%)" fill-opacity="1">
<use xlink:href="#glyph-0-0" x="30" y="24.838867"/>
</g>
<g fill="rgb(100%, 41.960784%, 20.784314%)" fill-opacity="1">
<use xlink:href="#glyph-1-0" x="35" y="24.838867"/>
<use xlink:href="#glyph-1-1" x="36" y="24.838867"/>
<use xlink:href="#glyph-1-2" x="40" y="24.838867"/>
<use xlink:href="#glyph-1-3" x="43" y="24.838867"/>
<use xlink:href="#glyph-1-0" x="46" y="24.838867"/>
<use xlink:href="#glyph-1-4" x="47" y="24.838867"/>
<use xlink:href="#glyph-1-0" x="51" y="24.838867"/>
<use xlink:href="#glyph-1-5" x="52" y="24.838867"/>
<use xlink:href="#glyph-1-6" x="54" y="24.838867"/>
<use xlink:href="#glyph-1-7" x="57" y="24.838867"/>
<use xlink:href="#glyph-1-5" x="59" y="24.838867"/>
</g>
</svg>
